<svg width="25" height="27" viewBox="0 0 25 27" fill="none" xmlns="http://www.w3.org/2000/svg">
<path d="M17.0455 4.5H23.8636C24.4912 4.5 25 5.00368 25 5.625C25 6.24632 24.4912 6.75 23.8636 6.75H22.608L20.8969 21.9962C20.5771 24.8449 18.145 27 15.2498 27H9.75018C6.85501 27 4.42283 24.8449 4.10311 21.9962L2.39198 6.75H1.13636C0.508767 6.75 0 6.24632 0 5.625C0 5.00368 0.508767 4.5 1.13636 4.5H7.95455C7.95455 2.01472 9.98961 0 12.5 0C15.0104 0 17.0455 2.01472 17.0455 4.5ZM12.5 2.25C11.2448 2.25 10.2273 3.25736 10.2273 4.5H14.7727C14.7727 3.25736 13.7552 2.25 12.5 2.25ZM9.09091 11.25V20.25C9.09091 20.8713 9.59968 21.375 10.2273 21.375C10.8549 21.375 11.3636 20.8713 11.3636 20.25L11.3636 11.25C11.3636 10.6287 10.8549 10.125 10.2273 10.125C9.59968 10.125 9.09091 10.6287 9.09091 11.25ZM14.7727 10.125C14.1451 10.125 13.6364 10.6287 13.6364 11.25V20.25C13.6364 20.8713 14.1451 21.375 14.7727 21.375C15.4003 21.375 15.9091 20.8713 15.9091 20.25V11.25C15.9091 10.6287 15.4003 10.125 14.7727 10.125Z" fill="#54B877"/>
</svg>
