<svg width="27" height="29" viewBox="0 0 27 29" fill="none" xmlns="http://www.w3.org/2000/svg">
<path d="M18.0455 5.5H24.8636C25.4912 5.5 26 6.00368 26 6.625C26 7.24632 25.4912 7.75 24.8636 7.75H23.608L21.8969 22.9962C21.5771 25.8449 19.145 28 16.2498 28H10.7502C7.85501 28 5.42283 25.8449 5.10311 22.9962L3.39198 7.75H2.13636C1.50877 7.75 1 7.24632 1 6.625C1 6.00368 1.50877 5.5 2.13636 5.5H8.95455C8.95455 3.01472 10.9896 1 13.5 1C16.0104 1 18.0455 3.01472 18.0455 5.5ZM13.5 3.25C12.2448 3.25 11.2273 4.25736 11.2273 5.5H15.7727C15.7727 4.25736 14.7552 3.25 13.5 3.25ZM10.0909 12.25L10.0909 21.25C10.0909 21.8713 10.5997 22.375 11.2273 22.375C11.8549 22.375 12.3636 21.8713 12.3636 21.25L12.3636 12.25C12.3636 11.6287 11.8549 11.125 11.2273 11.125C10.5997 11.125 10.0909 11.6287 10.0909 12.25ZM15.7727 11.125C15.1451 11.125 14.6364 11.6287 14.6364 12.25V21.25C14.6364 21.8713 15.1451 22.375 15.7727 22.375C16.4003 22.375 16.9091 21.8713 16.9091 21.25V12.25C16.9091 11.6287 16.4003 11.125 15.7727 11.125Z" stroke="#54B877" stroke-width="1.5"/>
</svg>
