<svg width="24" height="24" viewBox="0 0 24 24" fill="none" xmlns="http://www.w3.org/2000/svg">
<path d="M0 5C0 2.23858 2.23858 0 5 0H19C21.7614 0 24 2.23858 24 5V19C24 21.7614 21.7614 24 19 24H5C2.23858 24 0 21.7614 0 19V5Z" fill="#54B877"/>
<path d="M6 8.75C6 7.23122 7.23122 6 8.75 6H13.2408C13.655 6 13.9908 6.33579 13.9908 6.75C13.9908 7.16421 13.655 7.5 13.2408 7.5H8.75C8.05964 7.5 7.5 8.05964 7.5 8.75V15.25C7.5 15.9404 8.05964 16.5 8.75 16.5H15.25C15.9404 16.5 16.5 15.9404 16.5 15.25V10.7475C16.5 10.3333 16.8358 9.99755 17.25 9.99755C17.6642 9.99755 18 10.3333 18 10.7475V15.25C18 16.7688 16.7688 18 15.25 18H8.75C7.23122 18 6 16.7688 6 15.25V8.75ZM18.7802 5.2195C19.0731 5.5123 19.0733 5.98718 18.7805 6.28016L11.2805 13.7849L10 14L10.2195 12.7246L17.7195 5.21984C18.0123 4.92685 18.4872 4.9267 18.7802 5.2195Z" fill="white"/>
</svg>
