<svg width="40" height="24" viewBox="0 0 40 24" fill="none" xmlns="http://www.w3.org/2000/svg">
<path d="M0 5.99999C0 2.68629 2.68629 0 5.99999 0H34C37.3137 0 40 2.68629 40 5.99999V18C40 21.3137 37.3137 24 34 24H5.99999C2.68629 24 0 21.3137 0 18V5.99999Z" fill="white"/>
<rect width="24" height="24" transform="translate(8)" fill="white"/>
<path d="M20 13C20.5523 13 21 12.5523 21 12C21 11.4477 20.5523 11 20 11C19.4477 11 19 11.4477 19 12C19 12.5523 19.4477 13 20 13Z" stroke="#54B877" stroke-width="2" stroke-linecap="round" stroke-linejoin="round"/>
<path d="M27 13C27.5523 13 28 12.5523 28 12C28 11.4477 27.5523 11 27 11C26.4477 11 26 11.4477 26 12C26 12.5523 26.4477 13 27 13Z" stroke="#54B877" stroke-width="2" stroke-linecap="round" stroke-linejoin="round"/>
<path d="M13 13C13.5523 13 14 12.5523 14 12C14 11.4477 13.5523 11 13 11C12.4477 11 12 11.4477 12 12C12 12.5523 12.4477 13 13 13Z" stroke="#54B877" stroke-width="2" stroke-linecap="round" stroke-linejoin="round"/>
</svg>
