<svg width="24" height="24" viewBox="0 0 24 24" fill="none" xmlns="http://www.w3.org/2000/svg">
<path d="M0 5C0 2.23858 2.23858 0 5 0H19C21.7614 0 24 2.23858 24 5V19C24 21.7614 21.7614 24 19 24H5C2.23858 24 0 21.7614 0 19V5Z" fill="#C2D5E6"/>
<path d="M8.5 6C7.11929 6 6 7.11929 6 8.5V15.5C6 16.8807 7.11929 18 8.5 18H15.5C16.8807 18 18 16.8807 18 15.5V8.5C18 7.11929 16.8807 6 15.5 6H8.5ZM9.5 9H14.5C14.7761 9 15 9.22386 15 9.5C15 9.77614 14.7761 10 14.5 10H9.5C9.22386 10 9 9.77614 9 9.5C9 9.22386 9.22386 9 9.5 9ZM9.5 11H12.5C12.7761 11 13 11.2239 13 11.5C13 11.7761 12.7761 12 12.5 12H9.5C9.22386 12 9 11.7761 9 11.5C9 11.2239 9.22386 11 9.5 11ZM9.5 13H14.5C14.7761 13 15 13.2239 15 13.5C15 13.7761 14.7761 14 14.5 14H9.5C9.22386 14 9 13.7761 9 13.5C9 13.2239 9.22386 13 9.5 13Z" fill="white"/>
</svg>
