<svg width="60" height="60" viewBox="0 0 60 60" fill="none" xmlns="http://www.w3.org/2000/svg">
<circle cx="30" cy="30" r="30" fill="#CBEAD6"/>
<path fill-rule="evenodd" clip-rule="evenodd" d="M15 20.625C15 22.4306 15.8508 24.0375 17.1733 25.0668C15.7942 27.0518 15 29.3822 15 31.875C15 39.1237 21.7157 45 30 45C38.2843 45 45 39.1237 45 31.875C45 29.3822 44.2058 27.0518 42.8267 25.0668C44.1492 24.0375 45 22.4306 45 20.625C45 17.5184 42.4816 15 39.375 15C36.7588 15 34.5598 16.786 33.9307 19.2053C32.6779 18.9084 31.3601 18.75 30 18.75C28.6399 18.75 27.3221 18.9084 26.0693 19.2053C25.4402 16.786 23.2412 15 20.625 15C17.5184 15 15 17.5184 15 20.625Z" fill="#95CFA9"/>
</svg>
