<svg width="97" height="97" viewBox="0 0 97 97" fill="none" xmlns="http://www.w3.org/2000/svg">
<path d="M22.4138 70.9139C30.3744 70.9139 36.8277 64.4426 36.8277 56.4599C36.8277 48.4771 30.3744 42.0059 22.4138 42.0059C14.4533 42.0059 8 48.4771 8 56.4599C8 64.4426 14.4533 70.9139 22.4138 70.9139Z" fill="#D9D9D9"/>
<path d="M39.5039 56.4598C47.8918 56.4598 54.6915 49.6411 54.6915 41.2299C54.6915 32.8186 47.8918 26 39.5039 26C31.1161 26 24.3164 32.8186 24.3164 41.2299C24.3164 49.6411 31.1161 56.4598 39.5039 56.4598Z" fill="#D9D9D9"/>
<path d="M60.363 62.159C68.3236 62.159 74.7769 55.6877 74.7769 47.705C74.7769 39.7223 68.3236 33.251 60.363 33.251C52.4025 33.251 45.9492 39.7223 45.9492 47.705C45.9492 55.6877 52.4025 62.159 60.363 62.159Z" fill="#D9D9D9"/>
<path d="M76.6974 71C83.4921 71 89.0003 65.4765 89.0003 58.6628C89.0003 51.8492 83.4921 46.3257 76.6974 46.3257C69.9027 46.3257 64.3945 51.8492 64.3945 58.6628C64.3945 65.4765 69.9027 71 76.6974 71Z" fill="#D9D9D9"/>
<path d="M74.7776 54.3428H22.4141V70.9232H74.7776V54.3428Z" fill="#D9D9D9"/>
</svg>
