<svg width="97" height="97" viewBox="0 0 97 97" fill="none" xmlns="http://www.w3.org/2000/svg">
<path d="M27.737 57.6136C27.9224 56.5882 27.2415 55.6066 26.2161 55.4212C25.1906 55.2358 24.2091 55.9167 24.0236 56.9421L21.1883 72.6218C21.0029 73.6473 21.6838 74.6288 22.7092 74.8143C23.7346 74.9997 24.7162 74.3187 24.9016 73.2933L27.737 57.6136Z" fill="#548AB8"/>
<path d="M40.4831 57.5995C40.6685 56.574 39.9876 55.5925 38.9622 55.407C37.9367 55.2216 36.9552 55.9026 36.7697 56.928L32.4302 80.9256C32.2448 81.9511 32.9258 82.9326 33.9512 83.1181C34.9766 83.3035 35.9582 82.6225 36.1436 81.5971L40.4831 57.5995Z" fill="#548AB8"/>
<path d="M52.1472 57.5941C52.3326 56.5687 51.6516 55.5871 50.6262 55.4017C49.6008 55.2162 48.6192 55.8972 48.4338 56.9226L42.8655 87.7157C42.6801 88.7411 43.361 89.7227 44.3864 89.9082C45.4118 90.0936 46.3934 89.4126 46.5789 88.3872L52.1472 57.5941Z" fill="#548AB8"/>
<path d="M64.339 57.4995C64.5265 56.4783 63.8507 55.4984 62.8295 55.3108C61.8083 55.1232 60.8284 55.799 60.6408 56.8203L56.2512 80.7194C56.0636 81.7406 56.7394 82.7205 57.7606 82.9081C58.7819 83.0956 59.7618 82.4198 59.9493 81.3986L64.339 57.4995Z" fill="#548AB8"/>
<path d="M77.0143 57.619C77.1998 56.5936 76.5188 55.612 75.4934 55.4266C74.468 55.2411 73.4864 55.9221 73.301 56.9475L70.4656 72.6272C70.2802 73.6526 70.9611 74.6342 71.9866 74.8196C73.012 75.0051 73.9936 74.3241 74.179 73.2987L77.0143 57.619Z" fill="#548AB8"/>
<path d="M23.2359 49.2359C31.0981 49.2359 37.4718 42.8623 37.4718 35C37.4718 27.1378 31.0981 20.7642 23.2359 20.7642C15.3736 20.7642 9 27.1378 9 35C9 42.8623 15.3736 49.2359 23.2359 49.2359Z" fill="#D9D9D9"/>
<path d="M40.1133 35.0001C48.3976 35.0001 55.1134 28.2843 55.1134 20C55.1134 11.7157 48.3976 5 40.1133 5C31.829 5 25.1133 11.7157 25.1133 20C25.1133 28.2843 31.829 35.0001 40.1133 35.0001Z" fill="#D9D9D9"/>
<path d="M60.7164 40.6134C68.5786 40.6134 74.9522 34.2397 74.9522 26.3775C74.9522 18.5152 68.5786 12.1416 60.7164 12.1416C52.8541 12.1416 46.4805 18.5152 46.4805 26.3775C46.4805 34.2397 52.8541 40.6134 60.7164 40.6134Z" fill="#D9D9D9"/>
<path d="M76.8502 49.321C83.561 49.321 89.0012 43.8808 89.0012 37.17C89.0012 30.4592 83.561 25.019 76.8502 25.019C70.1394 25.019 64.6992 30.4592 64.6992 37.17C64.6992 43.8808 70.1394 49.321 76.8502 49.321Z" fill="#D9D9D9"/>
<path d="M74.9515 32.915H23.2344V49.2453H74.9515V32.915Z" fill="#D9D9D9"/>
</svg>
