<svg width="97" height="97" viewBox="0 0 97 97" fill="none" xmlns="http://www.w3.org/2000/svg">
<path d="M52.9565 51.3356C57.3874 51.3356 60.9793 47.54 60.9793 42.858C60.9793 38.1759 57.3874 34.3804 52.9565 34.3804C48.5256 34.3804 44.9336 38.1759 44.9336 42.858C44.9336 47.54 48.5256 51.3356 52.9565 51.3356Z" fill="#ADADAD"/>
<path d="M62.4621 42.867C67.1313 42.867 70.9164 38.8673 70.9164 33.9335C70.9164 28.9997 67.1313 25 62.4621 25C57.7929 25 54.0078 28.9997 54.0078 33.9335C54.0078 38.8673 57.7929 42.867 62.4621 42.867Z" fill="#ADADAD"/>
<path d="M74.0697 46.2072C78.5007 46.2072 82.0926 42.4116 82.0926 37.7296C82.0926 33.0475 78.5007 29.252 74.0697 29.252C69.6388 29.252 66.0469 33.0475 66.0469 37.7296C66.0469 42.4116 69.6388 46.2072 74.0697 46.2072Z" fill="#ADADAD"/>
<path d="M83.1533 51.3883C86.9336 51.3883 89.9981 48.1501 89.9981 44.1556C89.9981 40.161 86.9336 36.9229 83.1533 36.9229C79.3731 36.9229 76.3086 40.161 76.3086 44.1556C76.3086 48.1501 79.3731 51.3883 83.1533 51.3883Z" fill="#ADADAD"/>
<path d="M82.0949 41.6221H52.957V51.3446H82.0949V41.6221Z" fill="#ADADAD"/>
<path d="M19.5197 70.921C26.4341 70.921 32.0393 64.998 32.0393 57.6917C32.0393 50.3854 26.4341 44.4624 19.5197 44.4624C12.6052 44.4624 7 50.3854 7 57.6917C7 64.998 12.6052 70.921 19.5197 70.921Z" fill="#D9D9D9"/>
<path d="M34.3636 57.6918C41.6492 57.6918 47.5553 51.4509 47.5553 43.7524C47.5553 36.0539 41.6492 29.813 34.3636 29.813C27.078 29.813 21.1719 36.0539 21.1719 43.7524C21.1719 51.4509 27.078 57.6918 34.3636 57.6918Z" fill="#D9D9D9"/>
<path d="M52.4806 62.9083C59.395 62.9083 65.0003 56.9853 65.0003 49.679C65.0003 42.3727 59.395 36.4497 52.4806 36.4497C45.5662 36.4497 39.9609 42.3727 39.9609 49.679C39.9609 56.9853 45.5662 62.9083 52.4806 62.9083Z" fill="#D9D9D9"/>
<path d="M66.6705 71.0001C72.5723 71.0001 77.3566 65.9446 77.3566 59.7083C77.3566 53.472 72.5723 48.4165 66.6705 48.4165C60.7687 48.4165 55.9844 53.472 55.9844 59.7083C55.9844 65.9446 60.7687 71.0001 66.6705 71.0001Z" fill="#D9D9D9"/>
<path d="M65.0019 55.7544H19.5195V70.9299H65.0019V55.7544Z" fill="#D9D9D9"/>
</svg>
