<svg width="97" height="97" viewBox="0 0 97 97" fill="none" xmlns="http://www.w3.org/2000/svg">
<path d="M76.3173 65.5106C73.1906 66.3276 69.9273 66.4871 66.7353 65.9789C63.5433 65.4708 60.4925 64.3061 57.7772 62.5591C55.0619 60.812 52.7416 58.5209 50.9641 55.8316C49.1865 53.1423 47.9907 50.1138 47.4527 46.9389C46.9148 43.764 47.0465 40.5124 47.8394 37.391C48.6324 34.2695 50.0692 31.3468 52.0585 28.8089C54.0477 26.271 56.5458 24.1735 59.3935 22.65C62.2413 21.1265 65.3763 20.2103 68.5991 19.9599C62.9802 16.487 56.4466 14.7683 49.8389 15.0251C43.2312 15.2819 36.8518 17.5023 31.5217 21.4008C26.1916 25.2992 22.1547 30.6971 19.9304 36.9C17.7062 43.1029 17.3963 49.8269 19.0408 56.2066C20.6853 62.5864 24.2089 68.33 29.1581 72.6983C34.1073 77.0667 40.2556 79.8598 46.8119 80.7184C53.3682 81.577 60.0324 80.4617 65.947 77.516C71.8616 74.5703 76.7559 69.929 80 64.1895C78.8144 64.7382 77.5819 65.1803 76.3173 65.5106Z" fill="#FFDB7D"/>
</svg>
