<svg width="97" height="97" viewBox="0 0 97 97" fill="none" xmlns="http://www.w3.org/2000/svg">
<path d="M85.9881 44.6088C82.6226 45.4751 79.052 44.964 76.0619 43.188C73.0718 41.4119 70.907 38.5164 70.0439 35.1384C69.1808 31.7603 69.69 28.1765 71.4595 25.1753C73.2289 22.174 76.1137 20.0013 79.4793 19.1349C80.1922 18.955 80.9191 18.8367 81.6521 18.7813C78.4971 16.827 74.8321 15.8638 71.1277 16.0155C67.4233 16.1672 63.8486 17.4268 60.8626 19.6326C57.8766 21.8383 55.6157 24.8896 54.3701 28.3945C53.1245 31.8995 52.951 35.6981 53.872 39.3027C54.793 42.9073 56.7665 46.1533 59.5389 48.624C62.3114 51.0946 65.7563 52.6771 69.4313 53.1682C73.1064 53.6594 76.8438 53.0367 80.1637 51.3802C83.4837 49.7238 86.2345 47.1091 88.0631 43.872C87.3928 44.1744 86.6988 44.4209 85.9881 44.6088Z" fill="#FFDB7D"/>
<path d="M21.7697 77.2052C29.9267 77.2052 36.5393 70.5681 36.5393 62.3807C36.5393 54.1933 29.9267 47.5562 21.7697 47.5562C13.6126 47.5562 7 54.1933 7 62.3807C7 70.5681 13.6126 77.2052 21.7697 77.2052Z" fill="#D9D9D9"/>
<path d="M39.2812 62.3807C47.8761 62.3807 54.8437 55.3873 54.8437 46.7604C54.8437 38.1336 47.8761 31.1401 39.2812 31.1401C30.6863 31.1401 23.7188 38.1336 23.7188 46.7604C23.7188 55.3873 30.6863 62.3807 39.2812 62.3807Z" fill="#D9D9D9"/>
<path d="M60.6564 68.216C68.8134 68.216 75.426 61.5788 75.426 53.3914C75.426 45.2041 68.8134 38.5669 60.6564 38.5669C52.4993 38.5669 45.8867 45.2041 45.8867 53.3914C45.8867 61.5788 52.4993 68.216 60.6564 68.216Z" fill="#D9D9D9"/>
<path d="M77.3917 77.2839C84.3541 77.2839 89.9983 71.6188 89.9983 64.6305C89.9983 57.6422 84.3541 51.9771 77.3917 51.9771C70.4293 51.9771 64.7852 57.6422 64.7852 64.6305C64.7852 71.6188 70.4293 77.2839 77.3917 77.2839Z" fill="#D9D9D9"/>
<path d="M75.4258 60.2095H21.7695V77.215H75.4258V60.2095Z" fill="#D9D9D9"/>
</svg>
