<svg width="97" height="97" viewBox="0 0 97 97" fill="none" xmlns="http://www.w3.org/2000/svg">
<path d="M39.6823 63.4505C39.8677 62.4278 39.1868 61.4489 38.1614 61.264C37.136 61.0791 36.1544 61.7582 35.9689 62.7808L33.0916 78.6491C32.9062 79.6717 33.5871 80.6506 34.6126 80.8355C35.638 81.0204 36.6196 80.3413 36.805 79.3187L39.6823 63.4505Z" fill="#548AB8"/>
<path d="M51.2331 63.4846C51.4185 62.462 50.7376 61.4831 49.7122 61.2982C48.6867 61.1133 47.7052 61.7924 47.5197 62.815L43.7728 83.4789C43.5874 84.5015 44.2684 85.4804 45.2938 85.6653C46.3192 85.8503 47.3008 85.1712 47.4862 84.1486L51.2331 63.4846Z" fill="#548AB8"/>
<path d="M63.6393 63.4578C63.8248 62.4352 63.1438 61.4563 62.1184 61.2713C61.093 61.0864 60.1114 61.7655 59.926 62.7881L57.0487 78.6564C56.8632 79.679 57.5442 80.6579 58.5696 80.8428C59.595 81.0278 60.5766 80.3487 60.762 79.3261L63.6393 63.4578Z" fill="#548AB8"/>
<path d="M23.2359 55.1151C31.0981 55.1151 37.4718 48.7589 37.4718 40.9181C37.4718 33.0774 31.0981 26.7212 23.2359 26.7212C15.3736 26.7212 9 33.0774 9 40.9181C9 48.7589 15.3736 55.1151 23.2359 55.1151Z" fill="#D9D9D9"/>
<path d="M40.1133 40.918C48.3976 40.918 55.1134 34.2206 55.1134 25.959C55.1134 17.6974 48.3976 11 40.1133 11C31.829 11 25.1133 17.6974 25.1133 25.959C25.1133 34.2206 31.829 40.918 40.1133 40.918Z" fill="#D9D9D9"/>
<path d="M60.7164 46.516C68.5786 46.516 74.9522 40.1598 74.9522 32.319C74.9522 24.4783 68.5786 18.1221 60.7164 18.1221C52.8541 18.1221 46.4805 24.4783 46.4805 32.319C46.4805 40.1598 52.8541 46.516 60.7164 46.516Z" fill="#D9D9D9"/>
<path d="M76.8502 55.1998C83.561 55.1998 89.0012 49.7745 89.0012 43.0821C89.0012 36.3896 83.561 30.9644 76.8502 30.9644C70.1394 30.9644 64.6992 36.3896 64.6992 43.0821C64.6992 49.7745 70.1394 55.1998 76.8502 55.1998Z" fill="#D9D9D9"/>
<path d="M74.9515 38.8389H23.2344V55.1244H74.9515V38.8389Z" fill="#D9D9D9"/>
</svg>
