<svg width="97" height="97" viewBox="0 0 97 97" fill="none" xmlns="http://www.w3.org/2000/svg">
<path d="M19.3492 61.5817C20.7977 61.5817 21.9719 60.4075 21.9719 58.9591C21.9719 57.5106 20.7977 56.3364 19.3492 56.3364C17.9008 56.3364 16.7266 57.5106 16.7266 58.9591C16.7266 60.4075 17.9008 61.5817 19.3492 61.5817Z" fill="#C2D5E6"/>
<path d="M33.2242 76.7707C34.6727 76.7707 35.8469 75.5965 35.8469 74.148C35.8469 72.6996 34.6727 71.5254 33.2242 71.5254C31.7758 71.5254 30.6016 72.6996 30.6016 74.148C30.6016 75.5965 31.7758 76.7707 33.2242 76.7707Z" fill="#C2D5E6"/>
<path d="M41.0289 61.9968C42.4773 61.9968 43.6515 60.8226 43.6515 59.3741C43.6515 57.9257 42.4773 56.7515 41.0289 56.7515C39.5804 56.7515 38.4062 57.9257 38.4062 59.3741C38.4062 60.8226 39.5804 61.9968 41.0289 61.9968Z" fill="#C2D5E6"/>
<path d="M62.8687 61.5817C64.3172 61.5817 65.4914 60.4075 65.4914 58.9591C65.4914 57.5106 64.3172 56.3364 62.8687 56.3364C61.4203 56.3364 60.2461 57.5106 60.2461 58.9591C60.2461 60.4075 61.4203 61.5817 62.8687 61.5817Z" fill="#C2D5E6"/>
<path d="M55.6031 76.7707C57.0516 76.7707 58.2258 75.5965 58.2258 74.148C58.2258 72.6996 57.0516 71.5254 55.6031 71.5254C54.1547 71.5254 52.9805 72.6996 52.9805 74.148C52.9805 75.5965 54.1547 76.7707 55.6031 76.7707Z" fill="#C2D5E6"/>
<path d="M77.3492 76.7707C78.7977 76.7707 79.9719 75.5965 79.9719 74.148C79.9719 72.6996 78.7977 71.5254 77.3492 71.5254C75.9008 71.5254 74.7266 72.6996 74.7266 74.148C74.7266 75.5965 75.9008 76.7707 77.3492 76.7707Z" fill="#C2D5E6"/>
<path d="M30.5612 57.6869C30.7466 56.6614 30.0657 55.6799 29.0403 55.4944C28.0149 55.309 27.0333 55.99 26.8479 57.0154L24.0125 72.6951C23.8271 73.7205 24.508 74.7021 25.5334 74.8875C26.5589 75.0729 27.5404 74.392 27.7259 73.3666L30.5612 57.6869Z" fill="#E9EDF6"/>
<path d="M51.6237 57.6644C51.8091 56.639 51.1282 55.6574 50.1028 55.472C49.0774 55.2865 48.0958 55.9675 47.9104 56.9929L42.342 87.786C42.1566 88.8115 42.8376 89.793 43.863 89.9785C44.8884 90.1639 45.87 89.4829 46.0554 88.4575L51.6237 57.6644Z" fill="#E9EDF6"/>
<path d="M72.5612 57.6888C72.7466 56.6634 72.0657 55.6818 71.0403 55.4964C70.0149 55.311 69.0333 55.9919 68.8479 57.0173L66.0125 72.697C65.8271 73.7225 66.508 74.704 67.5334 74.8895C68.5589 75.0749 69.5404 74.3939 69.7259 73.3685L72.5612 57.6888Z" fill="#E9EDF6"/>
<path d="M21.7632 49.3082C29.6255 49.3082 35.9991 42.9346 35.9991 35.0723C35.9991 27.21 29.6255 20.8364 21.7632 20.8364C13.901 20.8364 7.52734 27.21 7.52734 35.0723C7.52734 42.9346 13.901 49.3082 21.7632 49.3082Z" fill="#D9D9D9"/>
<path d="M38.6407 35.0723C46.925 35.0723 53.6407 28.3566 53.6407 20.0723C53.6407 11.788 46.925 5.07227 38.6407 5.07227C30.3564 5.07227 23.6406 11.788 23.6406 20.0723C23.6406 28.3566 30.3564 35.0723 38.6407 35.0723Z" fill="#D9D9D9"/>
<path d="M59.2437 40.6856C67.106 40.6856 73.4796 34.312 73.4796 26.4498C73.4796 18.5875 67.106 12.2139 59.2437 12.2139C51.3814 12.2139 45.0078 18.5875 45.0078 26.4498C45.0078 34.312 51.3814 40.6856 59.2437 40.6856Z" fill="#D9D9D9"/>
<path d="M75.3775 49.3933C82.0883 49.3933 87.5285 43.9531 87.5285 37.2423C87.5285 30.5315 82.0883 25.0913 75.3775 25.0913C68.6667 25.0913 63.2266 30.5315 63.2266 37.2423C63.2266 43.9531 68.6667 49.3933 75.3775 49.3933Z" fill="#D9D9D9"/>
<path d="M73.4788 32.9873H21.7617V49.3175H73.4788V32.9873Z" fill="#D9D9D9"/>
</svg>
