<svg width="97" height="97" viewBox="0 0 97 97" fill="none" xmlns="http://www.w3.org/2000/svg">
<path d="M71.5758 67.6418C73.0242 67.6418 74.1984 66.4676 74.1984 65.0191C74.1984 63.5707 73.0242 62.3965 71.5758 62.3965C70.1273 62.3965 68.9531 63.5707 68.9531 65.0191C68.9531 66.4676 70.1273 67.6418 71.5758 67.6418Z" fill="#C2D5E6"/>
<path d="M57.6969 82.6984C59.1453 82.6984 60.3195 81.5242 60.3195 80.0758C60.3195 78.6273 59.1453 77.4531 57.6969 77.4531C56.2484 77.4531 55.0742 78.6273 55.0742 80.0758C55.0742 81.5242 56.2484 82.6984 57.6969 82.6984Z" fill="#C2D5E6"/>
<path d="M49.8101 67.6418C51.2586 67.6418 52.4328 66.4676 52.4328 65.0191C52.4328 63.5707 51.2586 62.3965 49.8101 62.3965C48.3617 62.3965 47.1875 63.5707 47.1875 65.0191C47.1875 66.4676 48.3617 67.6418 49.8101 67.6418Z" fill="#C2D5E6"/>
<path d="M28.0562 67.6418C29.5047 67.6418 30.6789 66.4676 30.6789 65.0191C30.6789 63.5707 29.5047 62.3965 28.0562 62.3965C26.6078 62.3965 25.4336 63.5707 25.4336 65.0191C25.4336 66.4676 26.6078 67.6418 28.0562 67.6418Z" fill="#C2D5E6"/>
<path d="M35.6305 82.6984C37.0789 82.6984 38.2531 81.5242 38.2531 80.0758C38.2531 78.6273 37.0789 77.4531 35.6305 77.4531C34.182 77.4531 33.0078 78.6273 33.0078 80.0758C33.0078 81.5242 34.182 82.6984 35.6305 82.6984Z" fill="#C2D5E6"/>
<path d="M13.5758 82.6984C15.0242 82.6984 16.1984 81.5242 16.1984 80.0758C16.1984 78.6273 15.0242 77.4531 13.5758 77.4531C12.1273 77.4531 10.9531 78.6273 10.9531 80.0758C10.9531 81.5242 12.1273 82.6984 13.5758 82.6984Z" fill="#C2D5E6"/>
<path d="M23.2359 55.2359C31.0981 55.2359 37.4718 48.8623 37.4718 41C37.4718 33.1378 31.0981 26.7642 23.2359 26.7642C15.3736 26.7642 9 33.1378 9 41C9 48.8623 15.3736 55.2359 23.2359 55.2359Z" fill="#D9D9D9"/>
<path d="M40.1133 41.0001C48.3976 41.0001 55.1134 34.2843 55.1134 26C55.1134 17.7157 48.3976 11 40.1133 11C31.829 11 25.1133 17.7157 25.1133 26C25.1133 34.2843 31.829 41.0001 40.1133 41.0001Z" fill="#D9D9D9"/>
<path d="M60.7164 46.6134C68.5786 46.6134 74.9522 40.2397 74.9522 32.3775C74.9522 24.5152 68.5786 18.1416 60.7164 18.1416C52.8541 18.1416 46.4805 24.5152 46.4805 32.3775C46.4805 40.2397 52.8541 46.6134 60.7164 46.6134Z" fill="#D9D9D9"/>
<path d="M76.8502 55.321C83.561 55.321 89.0012 49.8808 89.0012 43.17C89.0012 36.4592 83.561 31.019 76.8502 31.019C70.1394 31.019 64.6992 36.4592 64.6992 43.17C64.6992 49.8808 70.1394 55.321 76.8502 55.321Z" fill="#D9D9D9"/>
<path d="M74.9515 38.915H23.2344V55.2453H74.9515V38.915Z" fill="#D9D9D9"/>
</svg>
