<svg width="97" height="97" viewBox="0 0 97 97" fill="none" xmlns="http://www.w3.org/2000/svg">
<path d="M48.5024 71.4152C60.8697 71.4152 70.8954 61.4896 70.8954 49.2457C70.8954 37.0018 60.8697 27.0762 48.5024 27.0762C36.1351 27.0762 26.1094 37.0018 26.1094 49.2457C26.1094 61.4896 36.1351 71.4152 48.5024 71.4152Z" fill="#FFDB7D"/>
<path d="M51.1662 11.6471C51.1662 10.1851 49.9712 9 48.4971 9C47.0231 9 45.8281 10.1851 45.8281 11.6471V18.5863C45.8281 20.0483 47.0231 21.2334 48.4971 21.2334C49.9712 21.2334 51.1662 20.0483 51.1662 18.5863V11.6471Z" fill="#FFDB7D"/>
<path d="M26.1282 18.7524C25.179 17.6325 23.4941 17.485 22.3649 18.4231C21.2357 19.3611 21.0898 21.0295 22.039 22.1494L26.5444 27.4651C27.4936 28.585 29.1785 28.7325 30.3077 27.7944C31.4369 26.8564 31.5828 25.1881 30.6336 24.0681L26.1282 18.7524Z" fill="#FFDB7D"/>
<path d="M11.5601 40.1185C10.1059 39.8646 8.71944 40.8239 8.46347 42.261C8.2075 43.6982 9.17891 45.0691 10.6332 45.3229L17.5359 46.5279C18.9901 46.7818 20.3765 45.8225 20.6325 44.3854C20.8885 42.9482 19.9171 41.5773 18.4628 41.3235L11.5601 40.1185Z" fill="#FFDB7D"/>
<path d="M14.2676 65.7555C12.9888 66.4865 12.5496 68.1036 13.2866 69.3674C14.0236 70.6312 15.6578 71.0632 16.9367 70.3322L23.0068 66.8626C24.2856 66.1316 24.7249 64.5145 23.9878 63.2507C23.2508 61.9869 21.6166 61.5549 20.3378 62.2859L14.2676 65.7555Z" fill="#FFDB7D"/>
<path d="M32.8562 83.7149C32.3541 85.0891 33.0703 86.6054 34.456 87.1016C35.8416 87.5978 37.3719 86.886 37.8739 85.5117L40.257 78.9889C40.7591 77.6146 40.0429 76.0984 38.6573 75.6022C37.2716 75.106 35.7414 75.8178 35.2393 77.1921L32.8562 83.7149Z" fill="#FFDB7D"/>
<path d="M58.9835 85.4777C59.4885 86.8515 61.0208 87.5606 62.406 87.0615C63.7912 86.5623 64.5046 85.044 63.9996 83.6702L61.6023 77.1495C61.0972 75.7757 59.5649 75.0667 58.1797 75.5658C56.7946 76.0649 56.0811 77.5832 56.5862 78.957L58.9835 85.4777Z" fill="#FFDB7D"/>
<path d="M80.0584 70.3362C81.3372 71.0672 82.9714 70.6352 83.7085 69.3714C84.4455 68.1075 84.0063 66.4904 82.7274 65.7595L76.6573 62.2899C75.3784 61.5589 73.7442 61.9908 73.0072 63.2547C72.2702 64.5185 72.7094 66.1356 73.9883 66.8666L80.0584 70.3362Z" fill="#FFDB7D"/>
<path d="M86.368 45.3184C87.8222 45.0646 88.7937 43.6937 88.5377 42.2565C88.2817 40.8194 86.8953 39.8601 85.441 40.114L78.5384 41.3189C77.0841 41.5728 76.1127 42.9437 76.3687 44.3808C76.6246 45.818 78.011 46.7773 79.4653 46.5234L86.368 45.3184Z" fill="#FFDB7D"/>
<path d="M74.9603 22.1489C75.9095 21.029 75.7636 19.3607 74.6344 18.4226C73.5052 17.4846 71.8204 17.632 70.8712 18.7519L66.3658 24.0677C65.4166 25.1876 65.5625 26.8559 66.6917 27.7939C67.8209 28.732 69.5057 28.5846 70.4549 27.4646L74.9603 22.1489Z" fill="#FFDB7D"/>
</svg>
