<svg width="97" height="97" viewBox="0 0 97 97" fill="none" xmlns="http://www.w3.org/2000/svg">
<path d="M68.1524 53.8C74.823 53.8 80.2305 48.4247 80.2305 41.794C80.2305 35.1633 74.823 29.7881 68.1524 29.7881C61.4818 29.7881 56.0742 35.1633 56.0742 41.794C56.0742 48.4247 61.4818 53.8 68.1524 53.8Z" fill="#FFDB7D"/>
<path d="M68.4335 20H67.8733C67.2335 20 66.7148 20.5156 66.7148 21.1515V25.4744C66.7148 26.1104 67.2335 26.6259 67.8733 26.6259H68.4335C69.0733 26.6259 69.5919 26.1104 69.5919 25.4744V21.1515C69.5919 20.5156 69.0733 20 68.4335 20Z" fill="#FFDB7D"/>
<path d="M54.2697 24.9199L53.8405 25.2779C53.3504 25.6867 53.2865 26.413 53.6978 26.9002L56.4932 30.2117C56.9044 30.6989 57.6351 30.7624 58.1252 30.3536L58.5544 29.9957C59.0445 29.5869 59.1084 28.8606 58.6972 28.3734L55.9017 25.0619C55.4905 24.5747 54.7598 24.5111 54.2697 24.9199Z" fill="#FFDB7D"/>
<path d="M46.6031 37.7346L46.5058 38.283C46.3948 38.9093 46.8155 39.5065 47.4455 39.617L51.7284 40.3676C52.3584 40.478 52.9593 40.0599 53.0704 39.4336L53.1676 38.8851C53.2787 38.2588 52.858 37.6616 52.228 37.5512L47.9451 36.8005C47.3151 36.6901 46.7142 37.1082 46.6031 37.7346Z" fill="#FFDB7D"/>
<path d="M49.0235 52.4512L49.3036 52.9334C49.6235 53.4842 50.332 53.6729 50.886 53.3549L54.6523 51.1935C55.2064 50.8755 55.3962 50.1712 55.0763 49.6205L54.7962 49.1382C54.4763 48.5874 53.7678 48.3987 53.2137 48.7167L49.4475 50.8782C48.8934 51.1961 48.7036 51.9004 49.0235 52.4512Z" fill="#FFDB7D"/>
<path d="M60.3889 62.1842L60.9153 62.3747C61.5165 62.5922 62.1813 62.2841 62.4001 61.6865L63.8875 57.6243C64.1063 57.0267 63.7964 56.3659 63.1952 56.1484L62.6687 55.9579C62.0675 55.7404 61.4027 56.0485 61.1839 56.6461L59.6965 60.7083C59.4777 61.3059 59.7877 61.9667 60.3889 62.1842Z" fill="#FFDB7D"/>
<path d="M75.3928 62.3675L75.9192 62.177C76.5204 61.9595 76.8304 61.2987 76.6116 60.7011L75.1242 56.6389C74.9054 56.0413 74.2406 55.7332 73.6394 55.9507L73.113 56.1412C72.5118 56.3587 72.2018 57.0195 72.4206 57.6171L73.908 61.6793C74.1268 62.2769 74.7916 62.585 75.3928 62.3675Z" fill="#FFDB7D"/>
<path d="M87.0079 52.9278L87.288 52.4455C87.6079 51.8947 87.418 51.1905 86.8639 50.8725L83.0977 48.711C82.5436 48.3931 81.8351 48.5818 81.5152 49.1325L81.2351 49.6148C80.9152 50.1656 81.1051 50.8698 81.6591 51.1878L85.4254 53.3492C85.9795 53.6672 86.688 53.4785 87.0079 52.9278Z" fill="#FFDB7D"/>
<path d="M89.7984 38.2864L89.7012 37.738C89.5901 37.1117 88.9892 36.6935 88.3592 36.804L84.0763 37.5546C83.4463 37.6651 83.0256 38.2623 83.1367 38.8886L83.2339 39.437C83.345 40.0633 83.9459 40.4815 84.5759 40.3711L88.8588 39.6204C89.4888 39.51 89.9095 38.9128 89.7984 38.2864Z" fill="#FFDB7D"/>
<path d="M82.4572 25.2695L82.028 24.9116C81.5379 24.5028 80.8072 24.5663 80.396 25.0535L77.6006 28.365C77.1893 28.8522 77.2533 29.5785 77.7434 29.9873L78.1725 30.3453C78.6626 30.7541 79.3933 30.6905 79.8046 30.2033L82.6 26.8918C83.0112 26.4046 82.9473 25.6783 82.4572 25.2695Z" fill="#FFDB7D"/>
<path d="M21.3286 76.915C29.242 76.915 35.6571 70.5383 35.6571 62.6721C35.6571 54.806 29.242 48.4292 21.3286 48.4292C13.4151 48.4292 7 54.806 7 62.6721C7 70.5383 13.4151 76.915 21.3286 76.915Z" fill="#D9D9D9"/>
<path d="M38.3164 62.6721C46.6547 62.6721 53.4141 55.9531 53.4141 47.6647C53.4141 39.3763 46.6547 32.6572 38.3164 32.6572C29.9782 32.6572 23.2188 39.3763 23.2188 47.6647C23.2188 55.9531 29.9782 62.6721 38.3164 62.6721Z" fill="#D9D9D9"/>
<path d="M59.2817 68.2002C67.1951 68.2002 73.6103 61.8234 73.6103 53.9573C73.6103 46.0911 67.1951 39.7144 59.2817 39.7144C51.3682 39.7144 44.9531 46.0911 44.9531 53.9573C44.9531 61.8234 51.3682 68.2002 59.2817 68.2002Z" fill="#D9D9D9"/>
<path d="M75.2926 77C82.0471 77 87.5227 71.5571 87.5227 64.843C87.5227 58.1289 82.0471 52.686 75.2926 52.686C68.5381 52.686 63.0625 58.1289 63.0625 64.843C63.0625 71.5571 68.5381 77 75.2926 77Z" fill="#D9D9D9"/>
<path d="M73.3819 60.5859H21.3281V76.9242H73.3819V60.5859Z" fill="#D9D9D9"/>
</svg>
