<svg width="33" height="33" viewBox="0 0 33 33" fill="none" xmlns="http://www.w3.org/2000/svg">
<path d="M7.98256 23.9715C10.7344 23.9715 12.9651 21.8144 12.9651 19.1535C12.9651 16.4925 10.7344 14.3354 7.98256 14.3354C5.23077 14.3354 3 16.4925 3 19.1535C3 21.8144 5.23077 23.9715 7.98256 23.9715Z" fill="#D9D9D9"/>
<path d="M13.8906 19.1533C16.7901 19.1533 19.1406 16.8804 19.1406 14.0766C19.1406 11.2729 16.7901 9 13.8906 9C10.9911 9 8.64062 11.2729 8.64062 14.0766C8.64062 16.8804 10.9911 19.1533 13.8906 19.1533Z" fill="#D9D9D9"/>
<path d="M21.0997 21.053C23.8515 21.053 26.0823 18.8959 26.0823 16.235C26.0823 13.5741 23.8515 11.417 21.0997 11.417C18.348 11.417 16.1172 13.5741 16.1172 16.235C16.1172 18.8959 18.348 21.053 21.0997 21.053Z" fill="#D9D9D9"/>
<path d="M26.7489 24.0002C29.0977 24.0002 31.0018 22.159 31.0018 19.8878C31.0018 17.6166 29.0977 15.7754 26.7489 15.7754C24.4002 15.7754 22.4961 17.6166 22.4961 19.8878C22.4961 22.159 24.4002 24.0002 26.7489 24.0002Z" fill="#D9D9D9"/>
<path d="M26.0854 18.4478H7.98438V23.9746H26.0854V18.4478Z" fill="#D9D9D9"/>
</svg>
