<svg width="33" height="33" viewBox="0 0 33 33" fill="none" xmlns="http://www.w3.org/2000/svg">
<path d="M10.6227 20.4304C10.6783 20.1297 10.474 19.8418 10.1664 19.7874C9.85875 19.733 9.56428 19.9328 9.50865 20.2335L8.65805 24.832C8.60242 25.1327 8.8067 25.4206 9.11433 25.4749C9.42195 25.5293 9.71643 25.3296 9.77206 25.0289L10.6227 20.4304Z" fill="#548AB8"/>
<path d="M14.4469 20.426C14.5025 20.1253 14.2982 19.8374 13.9906 19.783C13.683 19.7287 13.3885 19.9284 13.3329 20.2291L12.031 27.267C11.9754 27.5678 12.1797 27.8556 12.4873 27.91C12.7949 27.9644 13.0894 27.7647 13.145 27.464L14.4469 20.426Z" fill="#548AB8"/>
<path d="M17.943 20.4246C17.9986 20.1238 17.7943 19.836 17.4867 19.7816C17.1791 19.7272 16.8846 19.9269 16.829 20.2276L15.1585 29.2585C15.1028 29.5592 15.3071 29.8471 15.6148 29.9015C15.9224 29.9559 16.2169 29.7562 16.2725 29.4554L17.943 20.4246Z" fill="#548AB8"/>
<path d="M21.6013 20.3968C21.6576 20.0973 21.4548 19.8099 21.1485 19.7549C20.8421 19.6999 20.5481 19.8981 20.4919 20.1976L19.175 27.2066C19.1187 27.5061 19.3214 27.7935 19.6278 27.8485C19.9342 27.9035 20.2281 27.7053 20.2844 27.4058L21.6013 20.3968Z" fill="#548AB8"/>
<path d="M25.4039 20.4319C25.4595 20.1312 25.2553 19.8433 24.9476 19.7889C24.64 19.7345 24.3455 19.9342 24.2899 20.235L23.4393 24.8334C23.3837 25.1342 23.588 25.422 23.8956 25.4764C24.2032 25.5308 24.4977 25.3311 24.5533 25.0304L25.4039 20.4319Z" fill="#548AB8"/>
<path d="M9.27076 17.9731C11.6294 17.9731 13.5415 16.1039 13.5415 13.7981C13.5415 11.4923 11.6294 9.62305 9.27076 9.62305C6.91209 9.62305 5 11.4923 5 13.7981C5 16.1039 6.91209 17.9731 9.27076 17.9731Z" fill="#D9D9D9"/>
<path d="M14.3359 13.7983C16.8212 13.7983 18.836 11.8287 18.836 9.39915C18.836 6.96956 16.8212 5 14.3359 5C11.8507 5 9.83594 6.96956 9.83594 9.39915C9.83594 11.8287 11.8507 13.7983 14.3359 13.7983Z" fill="#D9D9D9"/>
<path d="M20.5169 15.4443C22.8755 15.4443 24.7876 13.5751 24.7876 11.2693C24.7876 8.96347 22.8755 7.09424 20.5169 7.09424C18.1582 7.09424 16.2461 8.96347 16.2461 11.2693C16.2461 13.5751 18.1582 15.4443 20.5169 15.4443Z" fill="#D9D9D9"/>
<path d="M25.3562 17.9983C27.3695 17.9983 29.0015 16.4028 29.0015 14.4347C29.0015 12.4666 27.3695 10.8711 25.3562 10.8711C23.343 10.8711 21.7109 12.4666 21.7109 14.4347C21.7109 16.4028 23.343 17.9983 25.3562 17.9983Z" fill="#D9D9D9"/>
<path d="M24.7847 13.187H9.26953V17.9763H24.7847V13.187Z" fill="#D9D9D9"/>
</svg>
