<svg width="33" height="33" viewBox="0 0 33 33" fill="none" xmlns="http://www.w3.org/2000/svg">
<path d="M17.9497 17.588C19.3911 17.588 20.5595 16.3503 20.5595 14.8235C20.5595 13.2968 19.3911 12.0591 17.9497 12.0591C16.5083 12.0591 15.3398 13.2968 15.3398 14.8235C15.3398 16.3503 16.5083 17.588 17.9497 17.588Z" fill="#ADADAD"/>
<path d="M21.0432 14.8262C22.5621 14.8262 23.7934 13.522 23.7934 11.9131C23.7934 10.3042 22.5621 9 21.0432 9C19.5243 9 18.293 10.3042 18.293 11.9131C18.293 13.522 19.5243 14.8262 21.0432 14.8262Z" fill="#ADADAD"/>
<path d="M24.8169 15.9156C26.2583 15.9156 27.4267 14.6779 27.4267 13.1512C27.4267 11.6244 26.2583 10.3867 24.8169 10.3867C23.3755 10.3867 22.207 11.6244 22.207 13.1512C22.207 14.6779 23.3755 15.9156 24.8169 15.9156Z" fill="#ADADAD"/>
<path d="M27.7735 17.6047C29.0032 17.6047 30.0001 16.5487 30.0001 15.2462C30.0001 13.9436 29.0032 12.8877 27.7735 12.8877C26.5438 12.8877 25.5469 13.9436 25.5469 15.2462C25.5469 16.5487 26.5438 17.6047 27.7735 17.6047Z" fill="#ADADAD"/>
<path d="M27.4278 14.4204H17.9492V17.5908H27.4278V14.4204Z" fill="#ADADAD"/>
<path d="M7.07266 23.9745C9.32193 23.9745 11.1453 22.0431 11.1453 19.6606C11.1453 17.2781 9.32193 15.3467 7.07266 15.3467C4.82339 15.3467 3 17.2781 3 19.6606C3 22.0431 4.82339 23.9745 7.07266 23.9745Z" fill="#D9D9D9"/>
<path d="M11.9007 19.6602C14.2707 19.6602 16.1919 17.6252 16.1919 15.1148C16.1919 12.6044 14.2707 10.5693 11.9007 10.5693C9.53065 10.5693 7.60938 12.6044 7.60938 15.1148C7.60938 17.6252 9.53065 19.6602 11.9007 19.6602Z" fill="#D9D9D9"/>
<path d="M17.7953 21.3612C20.0446 21.3612 21.868 19.4298 21.868 17.0473C21.868 14.6648 20.0446 12.7334 17.7953 12.7334C15.5461 12.7334 13.7227 14.6648 13.7227 17.0473C13.7227 19.4298 15.5461 21.3612 17.7953 21.3612Z" fill="#D9D9D9"/>
<path d="M22.4098 24C24.3297 24 25.886 22.3514 25.886 20.3178C25.886 18.2843 24.3297 16.6357 22.4098 16.6357C20.4899 16.6357 18.9336 18.2843 18.9336 20.3178C18.9336 22.3514 20.4899 24 22.4098 24Z" fill="#D9D9D9"/>
<path d="M21.8697 19.0288H7.07422V23.9774H21.8697V19.0288Z" fill="#D9D9D9"/>
</svg>
