<svg width="33" height="33" viewBox="0 0 33 33" fill="none" xmlns="http://www.w3.org/2000/svg">
<path d="M25.812 22.0716C24.8034 22.3315 23.7507 22.3823 22.7211 22.2206C21.6914 22.0589 20.7073 21.6883 19.8314 21.1324C18.9554 20.5765 18.207 19.8476 17.6336 18.9919C17.0602 18.1362 16.6744 17.1726 16.5009 16.1624C16.3273 15.1522 16.3698 14.1176 16.6256 13.1244C16.8814 12.1312 17.3449 11.2013 17.9866 10.3937C18.6283 9.58622 19.4341 8.91883 20.3527 8.43408C21.2714 7.94933 22.2827 7.65783 23.3223 7.57816C21.5098 6.47313 19.4021 5.92628 17.2706 6.00798C15.1391 6.08969 13.0812 6.7962 11.3619 8.0366C9.64246 9.27701 8.34023 10.9945 7.62272 12.9682C6.90521 14.9418 6.80527 17.0813 7.33575 19.1112C7.86623 21.1411 9.00286 22.9686 10.5994 24.3586C12.1959 25.7485 14.1792 26.6372 16.2942 26.9104C18.4091 27.1836 20.5589 26.8287 22.4668 25.8914C24.3747 24.9542 25.9535 23.4774 27 21.6512C26.6175 21.8258 26.22 21.9665 25.812 22.0716Z" fill="#FFDB7D"/>
</svg>
