<svg width="33" height="33" viewBox="0 0 33 33" fill="none" xmlns="http://www.w3.org/2000/svg">
<path d="M28.6956 16.3365C27.6008 16.6192 26.4393 16.4524 25.4666 15.8728C24.4939 15.2932 23.7897 14.3483 23.509 13.2458C23.2282 12.1434 23.3938 10.9738 23.9694 9.99436C24.5451 9.0149 25.4835 8.30582 26.5783 8.02309C26.8102 7.96438 27.0467 7.92576 27.2851 7.90767C26.2588 7.26988 25.0666 6.95556 23.8615 7.00506C22.6565 7.05457 21.4936 7.46564 20.5223 8.18549C19.5509 8.90535 18.8155 9.90112 18.4102 11.045C18.005 12.1888 17.9486 13.4285 18.2482 14.6049C18.5478 15.7812 19.1898 16.8406 20.0917 17.6469C20.9936 18.4532 22.1142 18.9696 23.3097 19.1299C24.5052 19.2902 25.721 19.087 26.801 18.5464C27.8809 18.0058 28.7758 17.1525 29.3706 16.0961C29.1526 16.1948 28.9268 16.2752 28.6956 16.3365Z" fill="#FFDB7D"/>
<path d="M7.80459 26.9744C10.4581 26.9744 12.6092 24.8083 12.6092 22.1363C12.6092 19.4644 10.4581 17.2983 7.80459 17.2983C5.15109 17.2983 3 19.4644 3 22.1363C3 24.8083 5.15109 26.9744 7.80459 26.9744Z" fill="#D9D9D9"/>
<path d="M13.5 22.1363C16.2959 22.1363 18.5625 19.854 18.5625 17.0386C18.5625 14.2232 16.2959 11.9409 13.5 11.9409C10.7041 11.9409 8.4375 14.2232 8.4375 17.0386C8.4375 19.854 10.7041 22.1363 13.5 22.1363Z" fill="#D9D9D9"/>
<path d="M20.453 24.0408C23.1065 24.0408 25.2576 21.8747 25.2576 19.2028C25.2576 16.5308 23.1065 14.3647 20.453 14.3647C17.7995 14.3647 15.6484 16.5308 15.6484 19.2028C15.6484 21.8747 17.7995 24.0408 20.453 24.0408Z" fill="#D9D9D9"/>
<path d="M25.8978 27.0001C28.1627 27.0001 29.9987 25.1513 29.9987 22.8707C29.9987 20.59 28.1627 18.7412 25.8978 18.7412C23.6329 18.7412 21.7969 20.59 21.7969 22.8707C21.7969 25.1513 23.6329 27.0001 25.8978 27.0001Z" fill="#D9D9D9"/>
<path d="M25.2591 21.4277H7.80469V26.9775H25.2591V21.4277Z" fill="#D9D9D9"/>
</svg>
