<svg width="33" height="33" viewBox="0 0 33 33" fill="none" xmlns="http://www.w3.org/2000/svg">
<path d="M13.5868 21.7843C13.6447 21.4571 13.4319 21.1439 13.1115 21.0847C12.791 21.0255 12.4843 21.2428 12.4263 21.5701L11.5272 26.6479C11.4692 26.9751 11.682 27.2884 12.0025 27.3476C12.3229 27.4067 12.6296 27.1894 12.6876 26.8622L13.5868 21.7843Z" fill="#548AB8"/>
<path d="M17.1961 21.7951C17.2541 21.4678 17.0413 21.1546 16.7208 21.0954C16.4004 21.0363 16.0937 21.2536 16.0357 21.5808L14.8648 28.1933C14.8069 28.5205 15.0197 28.8337 15.3401 28.8929C15.6605 28.9521 15.9673 28.7348 16.0252 28.4075L17.1961 21.7951Z" fill="#548AB8"/>
<path d="M21.075 21.7863C21.133 21.4591 20.9202 21.1458 20.5997 21.0866C20.2793 21.0275 19.9726 21.2448 19.9146 21.572L19.0154 26.6499C18.9575 26.9771 19.1703 27.2903 19.4907 27.3495C19.8112 27.4087 20.1179 27.1914 20.1759 26.8641L21.075 21.7863Z" fill="#548AB8"/>
<path d="M8.44871 19.1168C10.9057 19.1168 12.8974 17.0828 12.8974 14.5738C12.8974 12.0647 10.9057 10.0308 8.44871 10.0308C5.99176 10.0308 4 12.0647 4 14.5738C4 17.0828 5.99176 19.1168 8.44871 19.1168Z" fill="#D9D9D9"/>
<path d="M13.7227 14.5738C16.3115 14.5738 18.4102 12.4306 18.4102 9.78688C18.4102 7.14316 16.3115 5 13.7227 5C11.1338 5 9.03516 7.14316 9.03516 9.78688C9.03516 12.4306 11.1338 14.5738 13.7227 14.5738Z" fill="#D9D9D9"/>
<path d="M20.1597 16.3649C22.6166 16.3649 24.6084 14.3309 24.6084 11.8218C24.6084 9.31279 22.6166 7.27881 20.1597 7.27881C17.7027 7.27881 15.7109 9.31279 15.7109 11.8218C15.7109 14.3309 17.7027 16.3649 20.1597 16.3649Z" fill="#D9D9D9"/>
<path d="M25.2034 19.144C27.3006 19.144 29.0006 17.4079 29.0006 15.2663C29.0006 13.1248 27.3006 11.3887 25.2034 11.3887C23.1063 11.3887 21.4062 13.1248 21.4062 15.2663C21.4062 17.4079 23.1063 19.144 25.2034 19.144Z" fill="#D9D9D9"/>
<path d="M24.6108 13.9082H8.44922V19.1196H24.6108V13.9082Z" fill="#D9D9D9"/>
</svg>
