<svg width="33" height="33" viewBox="0 0 33 33" fill="none" xmlns="http://www.w3.org/2000/svg">
<path d="M23.554 22.775C24.0066 22.775 24.3735 22.4065 24.3735 21.9519C24.3735 21.4974 24.0066 21.1289 23.554 21.1289C23.1013 21.1289 22.7344 21.4974 22.7344 21.9519C22.7344 22.4065 23.1013 22.775 23.554 22.775Z" fill="#C2D5E6"/>
<path d="M19.218 27.5001C19.6707 27.5001 20.0376 27.1316 20.0376 26.677C20.0376 26.2225 19.6707 25.854 19.218 25.854C18.7654 25.854 18.3984 26.2225 18.3984 26.677C18.3984 27.1316 18.7654 27.5001 19.218 27.5001Z" fill="#C2D5E6"/>
<path d="M16.7532 22.775C17.2058 22.775 17.5727 22.4065 17.5727 21.9519C17.5727 21.4974 17.2058 21.1289 16.7532 21.1289C16.3005 21.1289 15.9336 21.4974 15.9336 21.9519C15.9336 22.4065 16.3005 22.775 16.7532 22.775Z" fill="#C2D5E6"/>
<path d="M9.9563 22.775C10.4089 22.775 10.7759 22.4065 10.7759 21.9519C10.7759 21.4974 10.4089 21.1289 9.9563 21.1289C9.50366 21.1289 9.13672 21.4974 9.13672 21.9519C9.13672 22.4065 9.50366 22.775 9.9563 22.775Z" fill="#C2D5E6"/>
<path d="M12.3235 27.5001C12.7761 27.5001 13.1431 27.1316 13.1431 26.677C13.1431 26.2225 12.7761 25.854 12.3235 25.854C11.8708 25.854 11.5039 26.2225 11.5039 26.677C11.5039 27.1316 11.8708 27.5001 12.3235 27.5001Z" fill="#C2D5E6"/>
<path d="M5.42895 27.5001C5.88159 27.5001 6.24853 27.1316 6.24853 26.677C6.24853 26.2225 5.88159 25.854 5.42895 25.854C4.97631 25.854 4.60938 26.2225 4.60938 26.677C4.60938 27.1316 4.97631 27.5001 5.42895 27.5001Z" fill="#C2D5E6"/>
<path d="M8.44871 18.8821C10.9057 18.8821 12.8974 16.882 12.8974 14.4147C12.8974 11.9474 10.9057 9.94727 8.44871 9.94727C5.99176 9.94727 4 11.9474 4 14.4147C4 16.882 5.99176 18.8821 8.44871 18.8821Z" fill="#D9D9D9"/>
<path d="M13.7227 14.4145C16.3115 14.4145 18.4102 12.307 18.4102 9.70724C18.4102 7.1075 16.3115 5 13.7227 5C11.1338 5 9.03516 7.1075 9.03516 9.70724C9.03516 12.307 11.1338 14.4145 13.7227 14.4145Z" fill="#D9D9D9"/>
<path d="M20.1597 16.1761C22.6166 16.1761 24.6084 14.1759 24.6084 11.7086C24.6084 9.24135 22.6166 7.24121 20.1597 7.24121C17.7027 7.24121 15.7109 9.24135 15.7109 11.7086C15.7109 14.1759 17.7027 16.1761 20.1597 16.1761Z" fill="#D9D9D9"/>
<path d="M25.2034 18.9085C27.3006 18.9085 29.0006 17.2013 29.0006 15.0954C29.0006 12.9894 27.3006 11.2822 25.2034 11.2822C23.1063 11.2822 21.4062 12.9894 21.4062 15.0954C21.4062 17.2013 23.1063 18.9085 25.2034 18.9085Z" fill="#D9D9D9"/>
<path d="M24.6108 13.7603H8.44922V18.8849H24.6108V13.7603Z" fill="#D9D9D9"/>
</svg>
