<svg width="33" height="33" viewBox="0 0 33 33" fill="none" xmlns="http://www.w3.org/2000/svg">
<path d="M8.54461 21.6678C8.97914 21.6678 9.3314 21.3214 9.3314 20.8942C9.3314 20.4669 8.97914 20.1206 8.54461 20.1206C8.11007 20.1206 7.75781 20.4669 7.75781 20.8942C7.75781 21.3214 8.11007 21.6678 8.54461 21.6678Z" fill="#C2D5E6"/>
<path d="M12.7087 26.1482C13.1432 26.1482 13.4955 25.8019 13.4955 25.3746C13.4955 24.9474 13.1432 24.6011 12.7087 24.6011C12.2741 24.6011 11.9219 24.9474 11.9219 25.3746C11.9219 25.8019 12.2741 26.1482 12.7087 26.1482Z" fill="#C2D5E6"/>
<path d="M15.0485 21.7903C15.483 21.7903 15.8353 21.444 15.8353 21.0167C15.8353 20.5895 15.483 20.2432 15.0485 20.2432C14.614 20.2432 14.2617 20.5895 14.2617 21.0167C14.2617 21.444 14.614 21.7903 15.0485 21.7903Z" fill="#C2D5E6"/>
<path d="M21.6032 21.6678C22.0377 21.6678 22.39 21.3214 22.39 20.8942C22.39 20.4669 22.0377 20.1206 21.6032 20.1206C21.1687 20.1206 20.8164 20.4669 20.8164 20.8942C20.8164 21.3214 21.1687 21.6678 21.6032 21.6678Z" fill="#C2D5E6"/>
<path d="M19.4235 26.1482C19.858 26.1482 20.2103 25.8019 20.2103 25.3746C20.2103 24.9474 19.858 24.6011 19.4235 24.6011C18.989 24.6011 18.6367 24.9474 18.6367 25.3746C18.6367 25.8019 18.989 26.1482 19.4235 26.1482Z" fill="#C2D5E6"/>
<path d="M25.9469 26.1482C26.3815 26.1482 26.7337 25.8019 26.7337 25.3746C26.7337 24.9474 26.3815 24.6011 25.9469 24.6011C25.5124 24.6011 25.1602 24.9474 25.1602 25.3746C25.1602 25.8019 25.5124 26.1482 25.9469 26.1482Z" fill="#C2D5E6"/>
<path d="M11.9117 20.5191C11.9674 20.2167 11.7631 19.9272 11.4554 19.8725C11.1478 19.8178 10.8533 20.0186 10.7977 20.3211L9.94711 24.9459C9.89148 25.2484 10.0958 25.5379 10.4034 25.5926C10.711 25.6473 11.0055 25.4465 11.0611 25.144L11.9117 20.5191Z" fill="#E9EDF6"/>
<path d="M18.2281 20.5123C18.2838 20.2099 18.0795 19.9203 17.7718 19.8656C17.4642 19.8109 17.1697 20.0118 17.1141 20.3142L15.4436 29.3969C15.388 29.6994 15.5923 29.9889 15.8999 30.0436C16.2075 30.0983 16.502 29.8975 16.5576 29.595L18.2281 20.5123Z" fill="#E9EDF6"/>
<path d="M24.5094 20.5196C24.565 20.2172 24.3607 19.9276 24.0531 19.873C23.7455 19.8183 23.451 20.0191 23.3954 20.3216L22.5448 24.9464C22.4891 25.2489 22.6934 25.5384 23.001 25.5931C23.3087 25.6478 23.6031 25.4469 23.6588 25.1445L24.5094 20.5196Z" fill="#E9EDF6"/>
<path d="M9.27076 18.0479C11.6294 18.0479 13.5415 16.1679 13.5415 13.8489C13.5415 11.5299 11.6294 9.6499 9.27076 9.6499C6.91209 9.6499 5 11.5299 5 13.8489C5 16.1679 6.91209 18.0479 9.27076 18.0479Z" fill="#D9D9D9"/>
<path d="M14.3359 13.8488C16.8212 13.8488 18.836 11.8679 18.836 9.42439C18.836 6.98086 16.8212 5 14.3359 5C11.8507 5 9.83594 6.98086 9.83594 9.42439C9.83594 11.8679 11.8507 13.8488 14.3359 13.8488Z" fill="#D9D9D9"/>
<path d="M20.5169 15.5044C22.8755 15.5044 24.7876 13.6245 24.7876 11.3054C24.7876 8.9864 22.8755 7.10645 20.5169 7.10645C18.1582 7.10645 16.2461 8.9864 16.2461 11.3054C16.2461 13.6245 18.1582 15.5044 20.5169 15.5044Z" fill="#D9D9D9"/>
<path d="M25.3562 18.0728C27.3695 18.0728 29.0015 16.4682 29.0015 14.4888C29.0015 12.5094 27.3695 10.9048 25.3562 10.9048C23.343 10.9048 21.7109 12.5094 21.7109 14.4888C21.7109 16.4682 23.343 18.0728 25.3562 18.0728Z" fill="#D9D9D9"/>
<path d="M24.7847 13.2339H9.26953V18.0506H24.7847V13.2339Z" fill="#D9D9D9"/>
</svg>
