<svg width="33" height="33" viewBox="0 0 33 33" fill="none" xmlns="http://www.w3.org/2000/svg">
<path d="M16.4995 23.5418C20.6219 23.5418 23.9638 20.2751 23.9638 16.2455C23.9638 12.2159 20.6219 8.94922 16.4995 8.94922C12.3771 8.94922 9.03516 12.2159 9.03516 16.2455C9.03516 20.2751 12.3771 23.5418 16.4995 23.5418Z" fill="#FFDB7D"/>
<path d="M17.3887 3.8712C17.3887 3.39005 16.9904 3 16.499 3C16.0077 3 15.6094 3.39005 15.6094 3.8712V6.15499C15.6094 6.63614 16.0077 7.02618 16.499 7.02618C16.9904 7.02618 17.3887 6.63614 17.3887 6.15499V3.8712Z" fill="#FFDB7D"/>
<path d="M9.04142 6.20954C8.72502 5.84096 8.1634 5.79244 7.787 6.10116C7.4106 6.40989 7.36196 6.95895 7.67836 7.32753L9.18016 9.07702C9.49656 9.4456 10.0582 9.49412 10.4346 9.1854C10.811 8.87667 10.8596 8.32761 10.5432 7.95902L9.04142 6.20954Z" fill="#FFDB7D"/>
<path d="M4.18671 13.2416C3.70195 13.1581 3.23981 13.4738 3.15449 13.9468C3.06917 14.4198 3.39297 14.871 3.87772 14.9545L6.17862 15.3511C6.66337 15.4346 7.12551 15.1189 7.21083 14.6459C7.29615 14.1729 6.97235 13.7218 6.4876 13.6382L4.18671 13.2416Z" fill="#FFDB7D"/>
<path d="M5.08922 21.6792C4.66293 21.9198 4.51652 22.452 4.76219 22.868C5.00787 23.2839 5.5526 23.4261 5.97889 23.1855L8.00226 22.0436C8.42855 21.803 8.57496 21.2708 8.32928 20.8549C8.0836 20.4389 7.53887 20.2968 7.11259 20.5373L5.08922 21.6792Z" fill="#FFDB7D"/>
<path d="M11.2867 27.5897C11.1193 28.042 11.3581 28.541 11.82 28.7043C12.2818 28.8676 12.7919 28.6334 12.9593 28.1811L13.7537 26.0343C13.921 25.582 13.6823 25.083 13.2204 24.9197C12.7585 24.7564 12.2484 24.9907 12.0811 25.443L11.2867 27.5897Z" fill="#FFDB7D"/>
<path d="M19.9958 28.1698C20.1641 28.6219 20.6749 28.8553 21.1366 28.691C21.5984 28.5267 21.8362 28.027 21.6678 27.5749L20.8687 25.4288C20.7004 24.9767 20.1896 24.7433 19.7279 24.9076C19.2662 25.0719 19.0283 25.5716 19.1967 26.0237L19.9958 28.1698Z" fill="#FFDB7D"/>
<path d="M27.0182 23.1864C27.4444 23.427 27.9892 23.2848 28.2349 22.8689C28.4805 22.4529 28.3341 21.9207 27.9078 21.6801L25.8845 20.5382C25.4582 20.2977 24.9134 20.4398 24.6678 20.8558C24.4221 21.2717 24.5685 21.8039 24.9948 22.0445L27.0182 23.1864Z" fill="#FFDB7D"/>
<path d="M29.1227 14.953C29.6074 14.8695 29.9312 14.4183 29.8459 13.9453C29.7606 13.4723 29.2984 13.1566 28.8137 13.2401L26.5128 13.6367C26.028 13.7203 25.7042 14.1714 25.7896 14.6444C25.8749 15.1174 26.337 15.4331 26.8218 15.3496L29.1227 14.953Z" fill="#FFDB7D"/>
<path d="M25.3214 7.32736C25.6378 6.95878 25.5892 6.40971 25.2128 6.10099C24.8364 5.79226 24.2748 5.84079 23.9584 6.20937L22.4566 7.95885C22.1402 8.32743 22.1888 8.8765 22.5652 9.18522C22.9416 9.49395 23.5032 9.44543 23.8196 9.07684L25.3214 7.32736Z" fill="#FFDB7D"/>
</svg>
