<svg width="33" height="33" viewBox="0 0 33 33" fill="none" xmlns="http://www.w3.org/2000/svg">
<path d="M22.8939 19.2667C25.0638 19.2667 26.8229 17.4749 26.8229 15.2647C26.8229 13.0544 25.0638 11.2627 22.8939 11.2627C20.7239 11.2627 18.9648 13.0544 18.9648 15.2647C18.9648 17.4749 20.7239 19.2667 22.8939 19.2667Z" fill="#FFDB7D"/>
<path d="M22.9849 8H22.8026C22.5945 8 22.4258 8.17185 22.4258 8.38384V9.8248C22.4258 10.0368 22.5945 10.2086 22.8026 10.2086H22.9849C23.193 10.2086 23.3617 10.0368 23.3617 9.8248V8.38384C23.3617 8.17185 23.193 8 22.9849 8Z" fill="#FFDB7D"/>
<path d="M18.3775 9.63981L18.2379 9.75913C18.0785 9.8954 18.0577 10.1375 18.1914 10.2999L19.1008 11.4037C19.2346 11.5661 19.4723 11.5873 19.6317 11.4511L19.7713 11.3317C19.9307 11.1955 19.9515 10.9534 19.8178 10.791L18.9084 9.68712C18.7746 9.52473 18.5369 9.50355 18.3775 9.63981Z" fill="#FFDB7D"/>
<path d="M15.8822 13.9114L15.8506 14.0942C15.8145 14.3029 15.9513 14.502 16.1563 14.5388L17.5495 14.789C17.7544 14.8259 17.9499 14.6865 17.986 14.4777L18.0177 14.2949C18.0538 14.0861 17.917 13.887 17.712 13.8502L16.3188 13.6C16.1138 13.5632 15.9184 13.7026 15.8822 13.9114Z" fill="#FFDB7D"/>
<path d="M16.6697 18.8169L16.7608 18.9776C16.8649 19.1612 17.0953 19.2241 17.2756 19.1181L18.5007 18.3977C18.681 18.2917 18.7427 18.0569 18.6387 17.8733L18.5476 17.7126C18.4435 17.529 18.213 17.4661 18.0328 17.5721L16.8076 18.2926C16.6274 18.3985 16.5656 18.6333 16.6697 18.8169Z" fill="#FFDB7D"/>
<path d="M20.3692 22.0616L20.5404 22.1251C20.736 22.1976 20.9522 22.0949 21.0234 21.8957L21.5073 20.5416C21.5785 20.3424 21.4776 20.1221 21.282 20.0496L21.1108 19.9861C20.9152 19.9136 20.699 20.0163 20.6278 20.2155L20.1439 21.5696C20.0728 21.7688 20.1736 21.9891 20.3692 22.0616Z" fill="#FFDB7D"/>
<path d="M25.2481 22.1225L25.4193 22.059C25.6149 21.9865 25.7157 21.7662 25.6445 21.567L25.1607 20.213C25.0895 20.0138 24.8733 19.9111 24.6777 19.9836L24.5064 20.0471C24.3109 20.1196 24.21 20.3398 24.2812 20.539L24.7651 21.8931C24.8363 22.0923 25.0525 22.195 25.2481 22.1225Z" fill="#FFDB7D"/>
<path d="M29.0251 18.9761L29.1163 18.8153C29.2203 18.6317 29.1586 18.397 28.9783 18.291L27.7532 17.5705C27.5729 17.4645 27.3425 17.5274 27.2384 17.711L27.1473 17.8718C27.0432 18.0553 27.105 18.2901 27.2852 18.3961L28.5104 19.1166C28.6906 19.2226 28.9211 19.1597 29.0251 18.9761Z" fill="#FFDB7D"/>
<path d="M29.933 14.0955L29.9014 13.9127C29.8652 13.7039 29.6698 13.5645 29.4648 13.6013L28.0716 13.8515C27.8667 13.8884 27.7298 14.0874 27.7659 14.2962L27.7976 14.479C27.8337 14.6878 28.0292 14.8272 28.2341 14.7904L29.6273 14.5401C29.8323 14.5033 29.9692 14.3043 29.933 14.0955Z" fill="#FFDB7D"/>
<path d="M27.5455 9.75667L27.4059 9.63735C27.2464 9.50109 27.0087 9.52227 26.875 9.68466L25.9656 10.7885C25.8318 10.9509 25.8526 11.193 26.0121 11.3293L26.1517 11.4486C26.3111 11.5849 26.5488 11.5637 26.6826 11.4013L27.5919 10.2974C27.7257 10.135 27.7049 9.89293 27.5455 9.75667Z" fill="#FFDB7D"/>
<path d="M7.6611 26.9718C10.2354 26.9718 12.3222 24.8462 12.3222 22.2242C12.3222 19.6022 10.2354 17.4766 7.6611 17.4766C5.08685 17.4766 3 19.6022 3 22.2242C3 24.8462 5.08685 26.9718 7.6611 26.9718Z" fill="#D9D9D9"/>
<path d="M13.1886 22.2242C15.9011 22.2242 18.0999 19.9845 18.0999 17.2217C18.0999 14.4589 15.9011 12.2192 13.1886 12.2192C10.4762 12.2192 8.27734 14.4589 8.27734 17.2217C8.27734 19.9845 10.4762 22.2242 13.1886 22.2242Z" fill="#D9D9D9"/>
<path d="M20.0088 24.0666C22.583 24.0666 24.6699 21.941 24.6699 19.3189C24.6699 16.6969 22.583 14.5713 20.0088 14.5713C17.4345 14.5713 15.3477 16.6969 15.3477 19.3189C15.3477 21.941 17.4345 24.0666 20.0088 24.0666Z" fill="#D9D9D9"/>
<path d="M25.2167 27.0002C27.414 27.0002 29.1952 25.1859 29.1952 22.9478C29.1952 20.7098 27.414 18.8955 25.2167 18.8955C23.0195 18.8955 21.2383 20.7098 21.2383 22.9478C21.2383 25.1859 23.0195 27.0002 25.2167 27.0002Z" fill="#D9D9D9"/>
<path d="M24.5933 21.5288H7.66016V26.9749H24.5933V21.5288Z" fill="#D9D9D9"/>
</svg>
