<svg width="44" height="44" viewBox="0 0 44 44" fill="none" xmlns="http://www.w3.org/2000/svg">
<path d="M10.4061 30.9634C13.9442 30.9634 16.8123 28.2311 16.8123 24.8606C16.8123 21.4901 13.9442 18.7578 10.4061 18.7578C6.86813 18.7578 4 21.4901 4 24.8606C4 28.2311 6.86813 30.9634 10.4061 30.9634Z" fill="#D9D9D9"/>
<path d="M18 24.8608C21.7279 24.8608 24.75 21.9818 24.75 18.4304C24.75 14.879 21.7279 12 18 12C14.2721 12 11.25 14.879 11.25 18.4304C11.25 21.9818 14.2721 24.8608 18 24.8608Z" fill="#D9D9D9"/>
<path d="M27.2733 27.2671C30.8114 27.2671 33.6795 24.5348 33.6795 21.1643C33.6795 17.7938 30.8114 15.0615 27.2733 15.0615C23.7353 15.0615 20.8672 17.7938 20.8672 21.1643C20.8672 24.5348 23.7353 27.2671 27.2733 27.2671Z" fill="#D9D9D9"/>
<path d="M34.5304 31.0001C37.5503 31.0001 39.9984 28.6679 39.9984 25.7911C39.9984 22.9142 37.5503 20.582 34.5304 20.582C31.5106 20.582 29.0625 22.9142 29.0625 25.7911C29.0625 28.6679 31.5106 31.0001 34.5304 31.0001Z" fill="#D9D9D9"/>
<path d="M33.6789 23.9668H10.4062V30.9674H33.6789V23.9668Z" fill="#D9D9D9"/>
</svg>
