<svg width="44" height="44" viewBox="0 0 44 44" fill="none" xmlns="http://www.w3.org/2000/svg">
<path d="M15.0244 26.1333C15.094 25.7604 14.8386 25.4034 14.4541 25.336C14.0695 25.2685 13.7014 25.5162 13.6319 25.8891L12.5687 31.5912C12.4991 31.9641 12.7545 32.3211 13.139 32.3885C13.5235 32.4559 13.8916 32.2083 13.9612 31.8354L15.0244 26.1333Z" fill="#548AB8"/>
<path d="M19.8057 26.1284C19.8752 25.7555 19.6199 25.3985 19.2353 25.3311C18.8508 25.2636 18.4827 25.5113 18.4132 25.8842L16.7859 34.6112C16.7163 34.9841 16.9717 35.3411 17.3562 35.4085C17.7407 35.476 18.1088 35.2283 18.1784 34.8554L19.8057 26.1284Z" fill="#548AB8"/>
<path d="M24.1807 26.1264C24.2502 25.7535 23.9949 25.3966 23.6103 25.3291C23.2258 25.2617 22.8577 25.5093 22.7882 25.8822L20.7 37.0805C20.6305 37.4534 20.8859 37.8104 21.2704 37.8778C21.6549 37.9453 22.023 37.6976 22.0926 37.3247L24.1807 26.1264Z" fill="#548AB8"/>
<path d="M28.7516 26.0923C28.822 25.7209 28.5685 25.3646 28.1856 25.2964C27.8026 25.2281 27.4352 25.4739 27.3648 25.8453L25.7187 34.5365C25.6484 34.9079 25.9018 35.2642 26.2848 35.3324C26.6677 35.4006 27.0352 35.1549 27.1055 34.7835L28.7516 26.0923Z" fill="#548AB8"/>
<path d="M33.5049 26.1357C33.5744 25.7628 33.3191 25.4058 32.9345 25.3384C32.55 25.271 32.1819 25.5186 32.1124 25.8915L31.0491 31.5936C30.9796 31.9665 31.2349 32.3235 31.6195 32.3909C32.004 32.4584 32.3721 32.2107 32.4416 31.8378L33.5049 26.1357Z" fill="#548AB8"/>
<path d="M13.3385 23.087C16.2868 23.087 18.6769 20.7692 18.6769 17.91C18.6769 15.0508 16.2868 12.7329 13.3385 12.7329C10.3901 12.7329 8 15.0508 8 17.91C8 20.7692 10.3901 23.087 13.3385 23.087Z" fill="#D9D9D9"/>
<path d="M19.668 17.9099C22.7746 17.9099 25.293 15.4676 25.293 12.4549C25.293 9.44226 22.7746 7 19.668 7C16.5614 7 14.043 9.44226 14.043 12.4549C14.043 15.4676 16.5614 17.9099 19.668 17.9099Z" fill="#D9D9D9"/>
<path d="M27.3931 19.9513C30.3415 19.9513 32.7316 17.6334 32.7316 14.7742C32.7316 11.915 30.3415 9.59717 27.3931 9.59717C24.4448 9.59717 22.0547 11.915 22.0547 14.7742C22.0547 17.6334 24.4448 19.9513 27.3931 19.9513Z" fill="#D9D9D9"/>
<path d="M33.4433 23.118C35.9599 23.118 37.9999 21.1396 37.9999 18.6991C37.9999 16.2587 35.9599 14.2803 33.4433 14.2803C30.9268 14.2803 28.8867 16.2587 28.8867 18.6991C28.8867 21.1396 30.9268 23.118 33.4433 23.118Z" fill="#D9D9D9"/>
<path d="M32.7338 17.1519H13.3398V23.0905H32.7338V17.1519Z" fill="#D9D9D9"/>
</svg>
