<svg width="44" height="44" viewBox="0 0 44 44" fill="none" xmlns="http://www.w3.org/2000/svg">
<path d="M23.4866 24.0227C25.4618 24.0227 27.0631 22.2899 27.0631 20.1524C27.0631 18.015 25.4618 16.2822 23.4866 16.2822C21.5114 16.2822 19.9102 18.015 19.9102 20.1524C19.9102 22.2899 21.5114 24.0227 23.4866 24.0227Z" fill="#ADADAD"/>
<path d="M27.7258 20.1567C29.8073 20.1567 31.4946 18.3307 31.4946 16.0783C31.4946 13.8259 29.8073 12 27.7258 12C25.6444 12 23.957 13.8259 23.957 16.0783C23.957 18.3307 25.6444 20.1567 27.7258 20.1567Z" fill="#ADADAD"/>
<path d="M32.9007 21.6813C34.8759 21.6813 36.4771 19.9486 36.4771 17.8111C36.4771 15.6737 34.8759 13.9409 32.9007 13.9409C30.9255 13.9409 29.3242 15.6737 29.3242 17.8111C29.3242 19.9486 30.9255 21.6813 32.9007 21.6813Z" fill="#ADADAD"/>
<path d="M36.9497 24.0466C38.6349 24.0466 40.001 22.5683 40.001 20.7448C40.001 18.9212 38.6349 17.4429 36.9497 17.4429C35.2645 17.4429 33.8984 18.9212 33.8984 20.7448C33.8984 22.5683 35.2645 24.0466 36.9497 24.0466Z" fill="#ADADAD"/>
<path d="M36.4736 19.5884H23.4844V24.0269H36.4736V19.5884Z" fill="#ADADAD"/>
<path d="M8.58106 32.9642C11.6634 32.9642 14.1621 30.2602 14.1621 26.9247C14.1621 23.5892 11.6634 20.8853 8.58106 20.8853C5.49872 20.8853 3 23.5892 3 26.9247C3 30.2602 5.49872 32.9642 8.58106 32.9642Z" fill="#D9D9D9"/>
<path d="M15.197 26.9245C18.4448 26.9245 21.0777 24.0754 21.0777 20.5609C21.0777 17.0464 18.4448 14.1973 15.197 14.1973C11.9493 14.1973 9.31641 17.0464 9.31641 20.5609C9.31641 24.0754 11.9493 26.9245 15.197 26.9245Z" fill="#D9D9D9"/>
<path d="M23.2764 29.306C26.3587 29.306 28.8574 26.602 28.8574 23.2665C28.8574 19.931 26.3587 17.2271 23.2764 17.2271C20.194 17.2271 17.6953 19.931 17.6953 23.2665C17.6953 26.602 20.194 29.306 23.2764 29.306Z" fill="#D9D9D9"/>
<path d="M29.5996 32.9998C32.2305 32.9998 34.3633 30.6919 34.3633 27.8449C34.3633 24.9979 32.2305 22.6899 29.5996 22.6899C26.9687 22.6899 24.8359 24.9979 24.8359 27.8449C24.8359 30.6919 26.9687 32.9998 29.5996 32.9998Z" fill="#D9D9D9"/>
<path d="M28.8573 26.04H8.58203V32.968H28.8573V26.04Z" fill="#D9D9D9"/>
</svg>
