<svg width="44" height="44" viewBox="0 0 44 44" fill="none" xmlns="http://www.w3.org/2000/svg">
<path d="M34.3368 30.194C32.9248 30.553 31.451 30.6231 30.0095 30.3998C28.5679 30.1766 27.1902 29.6648 25.9639 28.8972C24.7376 28.1295 23.6898 27.1228 22.887 25.9412C22.0842 24.7595 21.5442 23.4288 21.3012 22.0338C21.0583 20.6387 21.1178 19.21 21.4759 17.8384C21.834 16.4669 22.4829 15.1827 23.3812 14.0675C24.2796 12.9524 25.4078 12.0308 26.6938 11.3613C27.9799 10.6919 29.3958 10.2894 30.8512 10.1794C28.3137 8.65337 25.363 7.8982 22.3789 8.01103C19.3947 8.12385 16.5137 9.09951 14.1066 10.8125C11.6994 12.5254 9.87632 14.8972 8.87181 17.6227C7.8673 20.3483 7.72738 23.3027 8.47005 26.1059C9.21273 28.9092 10.804 31.4329 13.0391 33.3523C15.2742 35.2717 18.0509 36.499 21.0118 36.8763C23.9727 37.2535 26.9824 36.7635 29.6535 35.4691C32.3246 34.1748 34.5349 32.1355 36 29.6136C35.4646 29.8547 34.908 30.0489 34.3368 30.194Z" fill="#FFDB7D"/>
</svg>
