<svg width="44" height="44" viewBox="0 0 44 44" fill="none" xmlns="http://www.w3.org/2000/svg">
<path d="M37.3083 21.1375C35.8891 21.505 34.3834 21.2882 33.1225 20.5347C31.8616 19.7812 30.9488 18.5527 30.5848 17.1196C30.2209 15.6864 30.4356 14.166 31.1817 12.8927C31.9279 11.6194 33.1444 10.6976 34.5636 10.33C34.8642 10.2537 35.1708 10.2035 35.4799 10.18C34.1494 9.35085 32.6039 8.94223 31.0418 9.00658C29.4797 9.07094 27.9723 9.60533 26.7132 10.5411C25.4541 11.477 24.5006 12.7715 23.9754 14.2585C23.4501 15.7455 23.377 17.3571 23.7654 18.8863C24.1537 20.4156 24.9859 21.7928 26.155 22.8409C27.3241 23.8891 28.7768 24.5605 30.3265 24.7689C31.8762 24.9772 33.4523 24.7131 34.8522 24.0103C36.2522 23.3075 37.4122 22.1983 38.1833 20.8249C37.9006 20.9532 37.608 21.0577 37.3083 21.1375Z" fill="#FFDB7D"/>
<path d="M10.2282 34.9665C13.6679 34.9665 16.4563 32.1506 16.4563 28.6771C16.4563 25.2036 13.6679 22.3877 10.2282 22.3877C6.78845 22.3877 4 25.2036 4 28.6771C4 32.1506 6.78845 34.9665 10.2282 34.9665Z" fill="#D9D9D9"/>
<path d="M17.6133 28.6774C21.2376 28.6774 24.1758 25.7103 24.1758 22.0504C24.1758 18.3904 21.2376 15.4233 17.6133 15.4233C13.9889 15.4233 11.0508 18.3904 11.0508 22.0504C11.0508 25.7103 13.9889 28.6774 17.6133 28.6774Z" fill="#D9D9D9"/>
<path d="M26.6266 31.153C30.0663 31.153 32.8548 28.3372 32.8548 24.8636C32.8548 21.3901 30.0663 18.5742 26.6266 18.5742C23.1869 18.5742 20.3984 21.3901 20.3984 24.8636C20.3984 28.3372 23.1869 31.153 26.6266 31.153Z" fill="#D9D9D9"/>
<path d="M33.6832 34.9998C36.6192 34.9998 38.9992 32.5963 38.9992 29.6315C38.9992 26.6667 36.6192 24.2632 33.6832 24.2632C30.7473 24.2632 28.3672 26.6667 28.3672 29.6315C28.3672 32.5963 30.7473 34.9998 33.6832 34.9998Z" fill="#D9D9D9"/>
<path d="M32.8527 27.7563H10.2266V34.971H32.8527V27.7563Z" fill="#D9D9D9"/>
</svg>
