<svg width="44" height="44" viewBox="0 0 44 44" fill="none" xmlns="http://www.w3.org/2000/svg">
<path d="M17.8909 27.9802C17.9627 27.5711 17.6988 27.1796 17.3015 27.1056C16.9041 27.0316 16.5238 27.3033 16.4519 27.7123L15.337 34.0596C15.2651 34.4687 15.529 34.8602 15.9263 34.9342C16.3237 35.0082 16.704 34.7365 16.7759 34.3275L17.8909 27.9802Z" fill="#548AB8"/>
<path d="M22.3635 27.9939C22.4354 27.5848 22.1715 27.1932 21.7742 27.1193C21.3768 27.0453 20.9964 27.3169 20.9246 27.726L19.4727 35.9916C19.4008 36.4006 19.6647 36.7922 20.062 36.8661C20.4594 36.9401 20.8397 36.6685 20.9116 36.2594L22.3635 27.9939Z" fill="#548AB8"/>
<path d="M27.1721 27.9831C27.244 27.5741 26.9801 27.1825 26.5827 27.1085C26.1854 27.0346 25.805 27.3062 25.7332 27.7153L24.6182 34.0626C24.5464 34.4716 24.8102 34.8632 25.2076 34.9371C25.6049 35.0111 25.9853 34.7395 26.0571 34.3304L27.1721 27.9831Z" fill="#548AB8"/>
<path d="M11.5164 24.6461C14.563 24.6461 17.0328 22.1037 17.0328 18.9674C17.0328 15.831 14.563 13.2886 11.5164 13.2886C8.46978 13.2886 6 15.831 6 18.9674C6 22.1037 8.46978 24.6461 11.5164 24.6461Z" fill="#D9D9D9"/>
<path d="M18.0547 18.9672C21.2649 18.9672 23.8672 16.2883 23.8672 12.9836C23.8672 9.67895 21.2649 7 18.0547 7C14.8445 7 12.2422 9.67895 12.2422 12.9836C12.2422 16.2883 14.8445 18.9672 18.0547 18.9672Z" fill="#D9D9D9"/>
<path d="M26.0398 21.2062C29.0865 21.2062 31.5562 18.6637 31.5562 15.5274C31.5562 12.3911 29.0865 9.84863 26.0398 9.84863C22.9932 9.84863 20.5234 12.3911 20.5234 15.5274C20.5234 18.6637 22.9932 21.2062 26.0398 21.2062Z" fill="#D9D9D9"/>
<path d="M32.2905 24.68C34.891 24.68 36.999 22.5099 36.999 19.8329C36.999 17.156 34.891 14.9858 32.2905 14.9858C29.6901 14.9858 27.582 17.156 27.582 19.8329C27.582 22.5099 29.6901 24.68 32.2905 24.68Z" fill="#D9D9D9"/>
<path d="M31.556 18.1357H11.5156V24.65H31.556V18.1357Z" fill="#D9D9D9"/>
</svg>
