<svg width="44" height="44" viewBox="0 0 44 44" fill="none" xmlns="http://www.w3.org/2000/svg">
<path d="M30.2467 29.0411C30.808 29.0411 31.263 28.5842 31.263 28.0206C31.263 27.4569 30.808 27 30.2467 27C29.6855 27 29.2305 27.4569 29.2305 28.0206C29.2305 28.5842 29.6855 29.0411 30.2467 29.0411Z" fill="#C2D5E6"/>
<path d="M24.8717 34.9C25.433 34.9 25.888 34.4431 25.888 33.8794C25.888 33.3158 25.433 32.8589 24.8717 32.8589C24.3105 32.8589 23.8555 33.3158 23.8555 33.8794C23.8555 34.4431 24.3105 34.9 24.8717 34.9Z" fill="#C2D5E6"/>
<path d="M21.8132 29.0411C22.3744 29.0411 22.8294 28.5842 22.8294 28.0206C22.8294 27.4569 22.3744 27 21.8132 27C21.2519 27 20.7969 27.4569 20.7969 28.0206C20.7969 28.5842 21.2519 29.0411 21.8132 29.0411Z" fill="#C2D5E6"/>
<path d="M13.3835 29.0411C13.9447 29.0411 14.3997 28.5842 14.3997 28.0206C14.3997 27.4569 13.9447 27 13.3835 27C12.8222 27 12.3672 27.4569 12.3672 28.0206C12.3672 28.5842 12.8222 29.0411 13.3835 29.0411Z" fill="#C2D5E6"/>
<path d="M16.321 34.9C16.8822 34.9 17.3372 34.4431 17.3372 33.8794C17.3372 33.3158 16.8822 32.8589 16.321 32.8589C15.7597 32.8589 15.3047 33.3158 15.3047 33.8794C15.3047 34.4431 15.7597 34.9 16.321 34.9Z" fill="#C2D5E6"/>
<path d="M7.77409 34.9C8.33536 34.9 8.79036 34.4431 8.79036 33.8794C8.79036 33.3158 8.33536 32.8589 7.77409 32.8589C7.21281 32.8589 6.75781 33.3158 6.75781 33.8794C6.75781 34.4431 7.21281 34.9 7.77409 34.9Z" fill="#C2D5E6"/>
<path d="M11.5164 24.2135C14.563 24.2135 17.0328 21.7333 17.0328 18.6739C17.0328 15.6144 14.563 13.1343 11.5164 13.1343C8.46978 13.1343 6 15.6144 6 18.6739C6 21.7333 8.46978 24.2135 11.5164 24.2135Z" fill="#D9D9D9"/>
<path d="M18.0547 18.6739C21.2649 18.6739 23.8672 16.0606 23.8672 12.837C23.8672 9.6133 21.2649 7 18.0547 7C14.8445 7 12.2422 9.6133 12.2422 12.837C12.2422 16.0606 14.8445 18.6739 18.0547 18.6739Z" fill="#D9D9D9"/>
<path d="M26.0398 20.858C29.0865 20.858 31.5562 18.3779 31.5562 15.3184C31.5562 12.259 29.0865 9.77881 26.0398 9.77881C22.9932 9.77881 20.5234 12.259 20.5234 15.3184C20.5234 18.3779 22.9932 20.858 26.0398 20.858Z" fill="#D9D9D9"/>
<path d="M32.2905 24.2467C34.891 24.2467 36.999 22.1297 36.999 19.5184C36.999 16.907 34.891 14.79 32.2905 14.79C29.6901 14.79 27.582 16.907 27.582 19.5184C27.582 22.1297 29.6901 24.2467 32.2905 24.2467Z" fill="#D9D9D9"/>
<path d="M31.556 17.8628H11.5156V24.2174H31.556V17.8628Z" fill="#D9D9D9"/>
</svg>
