<svg width="44" height="44" viewBox="0 0 44 44" fill="none" xmlns="http://www.w3.org/2000/svg">
<path d="M11.4327 26.8348C11.9759 26.8348 12.4162 26.4019 12.4162 25.8678C12.4162 25.3338 11.9759 24.9009 11.4327 24.9009C10.8895 24.9009 10.4492 25.3338 10.4492 25.8678C10.4492 26.4019 10.8895 26.8348 11.4327 26.8348Z" fill="#C2D5E6"/>
<path d="M16.6358 32.4349C17.179 32.4349 17.6193 32.002 17.6193 31.4679C17.6193 30.9339 17.179 30.501 16.6358 30.501C16.0927 30.501 15.6523 30.9339 15.6523 31.4679C15.6523 32.002 16.0927 32.4349 16.6358 32.4349Z" fill="#C2D5E6"/>
<path d="M19.5616 26.9881C20.1048 26.9881 20.5451 26.5552 20.5451 26.0212C20.5451 25.4871 20.1048 25.0542 19.5616 25.0542C19.0184 25.0542 18.5781 25.4871 18.5781 26.0212C18.5781 26.5552 19.0184 26.9881 19.5616 26.9881Z" fill="#C2D5E6"/>
<path d="M27.753 26.8348C28.2962 26.8348 28.7365 26.4019 28.7365 25.8678C28.7365 25.3338 28.2962 24.9009 27.753 24.9009C27.2099 24.9009 26.7695 25.3338 26.7695 25.8678C26.7695 26.4019 27.2099 26.8348 27.753 26.8348Z" fill="#C2D5E6"/>
<path d="M25.0304 32.4349C25.5735 32.4349 26.0139 32.002 26.0139 31.4679C26.0139 30.9339 25.5735 30.501 25.0304 30.501C24.4872 30.501 24.0469 30.9339 24.0469 31.4679C24.0469 32.002 24.4872 32.4349 25.0304 32.4349Z" fill="#C2D5E6"/>
<path d="M33.1827 32.4349C33.7259 32.4349 34.1662 32.002 34.1662 31.4679C34.1662 30.9339 33.7259 30.501 33.1827 30.501C32.6395 30.501 32.1992 30.9339 32.1992 31.4679C32.1992 32.002 32.6395 32.4349 33.1827 32.4349Z" fill="#C2D5E6"/>
<path d="M15.6377 25.3989C15.7072 25.0209 15.4519 24.659 15.0674 24.5906C14.6828 24.5222 14.3147 24.7733 14.2452 25.1514L13.1819 30.9324C13.1124 31.3105 13.3678 31.6724 13.7523 31.7408C14.1368 31.8091 14.5049 31.5581 14.5744 31.18L15.6377 25.3989Z" fill="#E9EDF6"/>
<path d="M23.5361 25.3906C23.6057 25.0126 23.3503 24.6507 22.9658 24.5823C22.5813 24.5139 22.2132 24.765 22.1436 25.1431L20.0555 36.4964C19.986 36.8745 20.2413 37.2364 20.6259 37.3048C21.0104 37.3731 21.3785 37.1221 21.448 36.744L23.5361 25.3906Z" fill="#E9EDF6"/>
<path d="M31.3877 25.3999C31.4572 25.0218 31.2019 24.6599 30.8174 24.5916C30.4328 24.5232 30.0647 24.7743 29.9952 25.1523L28.9319 30.9334C28.8624 31.3115 29.1178 31.6734 29.5023 31.7417C29.8868 31.8101 30.2549 31.559 30.3244 31.181L31.3877 25.3999Z" fill="#E9EDF6"/>
<path d="M12.3385 22.3095C15.2868 22.3095 17.6769 19.9596 17.6769 17.0608C17.6769 14.162 15.2868 11.812 12.3385 11.812C9.39011 11.812 7 14.162 7 17.0608C7 19.9596 9.39011 22.3095 12.3385 22.3095Z" fill="#D9D9D9"/>
<path d="M18.668 17.061C21.7746 17.061 24.293 14.5849 24.293 11.5305C24.293 8.47608 21.7746 6 18.668 6C15.5614 6 13.043 8.47608 13.043 11.5305C13.043 14.5849 15.5614 17.061 18.668 17.061Z" fill="#D9D9D9"/>
<path d="M26.3931 19.1308C29.3415 19.1308 31.7316 16.7808 31.7316 13.882C31.7316 10.9832 29.3415 8.6333 26.3931 8.6333C23.4448 8.6333 21.0547 10.9832 21.0547 13.882C21.0547 16.7808 23.4448 19.1308 26.3931 19.1308Z" fill="#D9D9D9"/>
<path d="M32.4433 22.3409C34.9599 22.3409 36.9999 20.3352 36.9999 17.8609C36.9999 15.3866 34.9599 13.3809 32.4433 13.3809C29.9268 13.3809 27.8867 15.3866 27.8867 17.8609C27.8867 20.3352 29.9268 22.3409 32.4433 22.3409Z" fill="#D9D9D9"/>
<path d="M31.7338 16.2925H12.3398V22.3134H31.7338V16.2925Z" fill="#D9D9D9"/>
</svg>
