<svg width="44" height="44" viewBox="0 0 44 44" fill="none" xmlns="http://www.w3.org/2000/svg">
<path d="M22.0015 33.2322C27.8034 33.2322 32.5068 28.5835 32.5068 22.849C32.5068 17.1145 27.8034 12.4658 22.0015 12.4658C16.1995 12.4658 11.4961 17.1145 11.4961 22.849C11.4961 28.5835 16.1995 33.2322 22.0015 33.2322Z" fill="#FFDB7D"/>
<path d="M23.2504 5.23978C23.2504 4.55507 22.6898 4 21.9982 4C21.3067 4 20.7461 4.55507 20.7461 5.23978V8.48979C20.7461 9.1745 21.3067 9.72957 21.9982 9.72957C22.6898 9.72957 23.2504 9.1745 23.2504 8.48979V5.23978Z" fill="#FFDB7D"/>
<path d="M11.5059 8.56772C11.0606 8.0432 10.2702 7.97415 9.74044 8.41349C9.21069 8.85283 9.14224 9.63419 9.58755 10.1587L11.7012 12.6484C12.1465 13.1729 12.9369 13.2419 13.4667 12.8026C13.9964 12.3633 14.0649 11.5819 13.6196 11.0574L11.5059 8.56772Z" fill="#FFDB7D"/>
<path d="M4.67018 18.5746C3.98793 18.4557 3.33751 18.905 3.21743 19.5781C3.09735 20.2512 3.55307 20.8933 4.23532 21.0122L7.47361 21.5765C8.15586 21.6954 8.80627 21.2461 8.92636 20.573C9.04644 19.8999 8.59072 19.2579 7.90847 19.139L4.67018 18.5746Z" fill="#FFDB7D"/>
<path d="M5.93965 30.5818C5.3397 30.9241 5.13364 31.6815 5.4794 32.2734C5.82517 32.8654 6.59183 33.0677 7.19179 32.7253L10.0395 31.1003C10.6395 30.758 10.8455 30.0006 10.4997 29.4087C10.154 28.8167 9.38732 28.6144 8.78736 28.9568L5.93965 30.5818Z" fill="#FFDB7D"/>
<path d="M14.6623 38.9931C14.4268 39.6367 14.7628 40.3468 15.4128 40.5792C16.0629 40.8116 16.7808 40.4782 17.0163 39.8346L18.1343 36.7796C18.3699 36.136 18.0339 35.4258 17.3838 35.1934C16.7338 34.961 16.0159 35.2944 15.7803 35.9381L14.6623 38.9931Z" fill="#FFDB7D"/>
<path d="M26.917 39.8187C27.1539 40.4622 27.8728 40.7942 28.5226 40.5605C29.1724 40.3267 29.5071 39.6156 29.2702 38.9722L28.1456 35.9182C27.9086 35.2748 27.1897 34.9427 26.5399 35.1764C25.8901 35.4102 25.5554 36.1213 25.7923 36.7647L26.917 39.8187Z" fill="#FFDB7D"/>
<path d="M36.8061 32.7273C37.406 33.0696 38.1727 32.8673 38.5185 32.2754C38.8642 31.6835 38.6582 30.9261 38.0582 30.5837L35.2105 28.9587C34.6105 28.6164 33.8439 28.8187 33.4981 29.4106C33.1524 30.0025 33.3584 30.7599 33.9584 31.1023L36.8061 32.7273Z" fill="#FFDB7D"/>
<path d="M39.766 21.0098C40.4482 20.8909 40.9039 20.2488 40.7838 19.5757C40.6638 18.9026 40.0133 18.4533 39.3311 18.5722L36.0928 19.1366C35.4105 19.2555 34.9548 19.8975 35.0749 20.5706C35.195 21.2437 35.8454 21.693 36.5277 21.5741L39.766 21.0098Z" fill="#FFDB7D"/>
<path d="M34.4129 10.1584C34.8582 9.63387 34.7897 8.85251 34.26 8.41317C33.7302 7.97383 32.9398 8.04288 32.4945 8.5674L30.3808 11.0571C29.9355 11.5816 30.004 12.3629 30.5337 12.8023C31.0635 13.2416 31.8539 13.1726 32.2992 12.648L34.4129 10.1584Z" fill="#FFDB7D"/>
</svg>
