<svg width="44" height="44" viewBox="0 0 44 44" fill="none" xmlns="http://www.w3.org/2000/svg">
<path d="M29.7846 24.605C32.5975 24.605 34.8778 22.2824 34.8778 19.4173C34.8778 16.5521 32.5975 14.2295 29.7846 14.2295C26.9717 14.2295 24.6914 16.5521 24.6914 19.4173C24.6914 22.2824 26.9717 24.605 29.7846 24.605Z" fill="#FFDB7D"/>
<path d="M29.9083 10H29.6721C29.4023 10 29.1836 10.2228 29.1836 10.4976V12.3655C29.1836 12.6403 29.4023 12.8631 29.6721 12.8631H29.9083C30.1781 12.8631 30.3968 12.6403 30.3968 12.3655V10.4976C30.3968 10.2228 30.1781 10 29.9083 10Z" fill="#FFDB7D"/>
<path d="M23.9341 12.1261L23.7531 12.2808C23.5464 12.4574 23.5195 12.7712 23.6929 12.9817L24.8717 14.4127C25.0451 14.6232 25.3532 14.6506 25.5599 14.474L25.7409 14.3193C25.9476 14.1427 25.9745 13.8288 25.8011 13.6183L24.6223 12.1874C24.4489 11.9769 24.1408 11.9494 23.9341 12.1261Z" fill="#FFDB7D"/>
<path d="M20.7001 17.6632L20.659 17.9001C20.6122 18.1708 20.7896 18.4288 21.0553 18.4765L22.8613 18.8009C23.127 18.8486 23.3804 18.6679 23.4272 18.3973L23.4682 18.1603C23.5151 17.8897 23.3377 17.6316 23.072 17.5839L21.266 17.2595C21.0003 17.2118 20.7469 17.3925 20.7001 17.6632Z" fill="#FFDB7D"/>
<path d="M21.7197 24.0218L21.8378 24.2302C21.9727 24.4682 22.2714 24.5497 22.5051 24.4123L24.0933 23.4784C24.3269 23.341 24.407 23.0367 24.2721 22.7987L24.1539 22.5903C24.019 22.3523 23.7203 22.2708 23.4866 22.4082L21.8985 23.3421C21.6648 23.4795 21.5848 23.7839 21.7197 24.0218Z" fill="#FFDB7D"/>
<path d="M26.5143 28.228L26.7363 28.3103C26.9898 28.4043 27.2701 28.2711 27.3624 28.0129L27.9896 26.2576C28.0819 25.9994 27.9512 25.7139 27.6976 25.6199L27.4757 25.5376C27.2221 25.4436 26.9418 25.5768 26.8495 25.835L26.2223 27.5903C26.13 27.8485 26.2608 28.134 26.5143 28.228Z" fill="#FFDB7D"/>
<path d="M32.8385 28.3072L33.0605 28.2249C33.314 28.1309 33.4447 27.8454 33.3525 27.5871L32.7252 25.8319C32.633 25.5736 32.3526 25.4405 32.0991 25.5345L31.8771 25.6168C31.6236 25.7108 31.4929 25.9963 31.5852 26.2545L32.2124 28.0098C32.3047 28.268 32.585 28.4012 32.8385 28.3072Z" fill="#FFDB7D"/>
<path d="M37.7392 24.2282L37.8573 24.0198C37.9922 23.7818 37.9122 23.4775 37.6785 23.3401L36.0903 22.4061C35.8567 22.2687 35.5579 22.3503 35.423 22.5882L35.3049 22.7966C35.17 23.0346 35.2501 23.3389 35.4837 23.4763L37.0719 24.4103C37.3055 24.5477 37.6043 24.4661 37.7392 24.2282Z" fill="#FFDB7D"/>
<path d="M38.9149 17.9013L38.8739 17.6643C38.827 17.3937 38.5737 17.213 38.308 17.2607L36.502 17.5851C36.2363 17.6328 36.0589 17.8909 36.1057 18.1615L36.1467 18.3985C36.1936 18.6691 36.447 18.8498 36.7126 18.8021L38.5187 18.4777C38.7844 18.43 38.9618 18.1719 38.9149 17.9013Z" fill="#FFDB7D"/>
<path d="M35.8208 12.2772L35.6398 12.1226C35.4332 11.9459 35.125 11.9734 34.9516 12.1839L33.7728 13.6148C33.5994 13.8253 33.6264 14.1392 33.833 14.3158L34.014 14.4705C34.2207 14.6471 34.5288 14.6196 34.7022 14.4091L35.881 12.9782C36.0544 12.7677 36.0275 12.4539 35.8208 12.2772Z" fill="#FFDB7D"/>
<path d="M10.0422 34.5929C13.3792 34.5929 16.0843 31.8375 16.0843 28.4385C16.0843 25.0396 13.3792 22.2842 10.0422 22.2842C6.70517 22.2842 4 25.0396 4 28.4385C4 31.8375 6.70517 34.5929 10.0422 34.5929Z" fill="#D9D9D9"/>
<path d="M17.2063 28.4386C20.7225 28.4386 23.5728 25.5353 23.5728 21.9539C23.5728 18.3725 20.7225 15.4692 17.2063 15.4692C13.6902 15.4692 10.8398 18.3725 10.8398 21.9539C10.8398 25.5353 13.6902 28.4386 17.2063 28.4386Z" fill="#D9D9D9"/>
<path d="M26.0461 30.8272C29.3831 30.8272 32.0882 28.0719 32.0882 24.6729C32.0882 21.2739 29.3831 18.5186 26.0461 18.5186C22.7091 18.5186 20.0039 21.2739 20.0039 24.6729C20.0039 28.0719 22.7091 30.8272 26.0461 30.8272Z" fill="#D9D9D9"/>
<path d="M32.7979 34.6296C35.6462 34.6296 37.9552 32.2777 37.9552 29.3765C37.9552 26.4754 35.6462 24.1235 32.7979 24.1235C29.9496 24.1235 27.6406 26.4754 27.6406 29.3765C27.6406 32.2777 29.9496 34.6296 32.7979 34.6296Z" fill="#D9D9D9"/>
<path d="M31.9934 27.5371H10.043V34.5969H31.9934V27.5371Z" fill="#D9D9D9"/>
</svg>
