<svg width="24" height="24" viewBox="0 0 24 24" fill="none" xmlns="http://www.w3.org/2000/svg">
<path d="M10.1891 14.7001V18.3001C10.1891 19.0162 10.4736 19.703 10.9799 20.2093C11.4863 20.7157 12.173 21.0001 12.8891 21.0001L16.4891 12.9001V3.00012L6.03013 3.00012C5.59604 2.99521 5.17479 3.14735 4.84402 3.42851C4.51324 3.70967 4.29522 4.1009 4.23013 4.53012L2.98913 12.6301C2.94998 12.8881 2.96738 13.1515 3.04013 13.4021C3.11288 13.6527 3.23924 13.8844 3.41046 14.0814C3.58168 14.2783 3.79366 14.4356 4.03172 14.5424C4.26978 14.6493 4.52822 14.7031 4.78913 14.7001H10.1891Z" fill="#44AB68" stroke="white" stroke-linejoin="round"/>
<path d="M16.4883 2.99984L18.8913 2.99984C19.4006 2.99083 19.8956 3.16916 20.2822 3.50097C20.6687 3.83279 20.92 4.29499 20.9883 4.79984V11.0998C20.8468 12.1448 19.9453 13.0188 18.8913 12.9998H16.4883V2.99984Z" fill="#44AB68" stroke="white" stroke-linejoin="round"/>
</svg>
