<svg width="24" height="24" viewBox="0 0 24 24" fill="none" xmlns="http://www.w3.org/2000/svg">
<path d="M13.8109 9.29989L13.8109 5.69989C13.8109 4.9838 13.5264 4.29705 13.0201 3.7907C12.5137 3.28435 11.8269 2.99989 11.1109 2.99989L7.51087 11.0999L7.51087 20.9999L17.9699 20.9999C18.404 21.0048 18.8252 20.8526 19.156 20.5715C19.4868 20.2903 19.7048 19.8991 19.7699 19.4699L21.0109 11.3699C21.05 11.1119 21.0326 10.8485 20.9599 10.5979C20.8871 10.3473 20.7608 10.1156 20.5895 9.91865C20.4183 9.72175 20.2063 9.56442 19.9683 9.45758C19.7302 9.35074 19.4718 9.29693 19.2109 9.29988L13.8109 9.29989Z" fill="#44AB68" stroke="white" stroke-linejoin="round"/>
<path d="M7.51172 21.0002L5.10872 21.0002C4.59935 21.0092 4.10441 20.8308 3.71785 20.499C3.33128 20.1672 3.08001 19.705 3.01172 19.2002L3.01172 12.9002C3.15322 11.8552 4.05472 10.9812 5.10872 11.0002L7.51172 11.0002L7.51172 21.0002Z" fill="#44AB68" stroke="white" stroke-linejoin="round"/>
</svg>
