<svg width="436" height="54" viewBox="0 0 436 54" fill="none" xmlns="http://www.w3.org/2000/svg">
<path d="M201.432 26.656V29.712H203.576V26.656H201.432ZM201.416 21.376V21.712C201.416 23.296 200.376 24.848 198.008 25.472L198.968 27.104C201.784 26.352 203.112 24.192 203.112 21.712V21.376H201.416ZM201.864 21.376V21.712C201.864 24.128 203.24 26.256 206.056 26.976L207 25.344C204.648 24.736 203.576 23.232 203.576 21.712V21.376H201.864ZM198.456 20.352V22.032H206.568V20.352H198.456ZM201.432 18.736V21.088H203.576V18.736H201.432ZM207.88 18.592V33.456H210.008V18.592H207.88ZM197.96 30.704C200.52 30.688 204.008 30.656 207.224 30.032L207.064 28.48C203.944 28.944 200.296 28.976 197.704 28.976L197.96 30.704ZM213.735 19.856V21.568H223.127V19.856H213.735ZM212.375 29.92V31.648H225.767V29.92H212.375ZM217.111 24.832V30.768H219.239V24.832H217.111ZM222.359 19.856V21.28C222.359 23.056 222.359 25.2 221.767 28.144L223.895 28.384C224.487 25.216 224.487 23.136 224.487 21.28V19.856H222.359ZM227.318 30.976C227.318 30.528 227.435 30.2133 227.67 30.032C227.915 29.84 228.208 29.744 228.549 29.744C228.891 29.744 229.179 29.8347 229.414 30.016C229.659 30.1973 229.782 30.5173 229.782 30.976C229.782 31.4133 229.659 31.728 229.414 31.92C229.179 32.112 228.891 32.208 228.549 32.208C228.208 32.208 227.915 32.112 227.67 31.92C227.435 31.728 227.318 31.4133 227.318 30.976ZM227.318 24.384C227.318 23.9253 227.435 23.6053 227.67 23.424C227.915 23.232 228.208 23.136 228.549 23.136C228.891 23.136 229.179 23.2267 229.414 23.408C229.659 23.5893 229.782 23.9147 229.782 24.384C229.782 24.8213 229.659 25.136 229.414 25.328C229.179 25.52 228.891 25.616 228.549 25.616C228.208 25.616 227.915 25.52 227.67 25.328C227.435 25.136 227.318 24.8213 227.318 24.384ZM242.611 32H235.171V30.512L237.875 27.568C238.419 26.9813 238.856 26.48 239.187 26.064C239.517 25.6373 239.757 25.2427 239.907 24.88C240.067 24.5173 240.147 24.1227 240.147 23.696C240.147 23.1733 240.013 22.784 239.747 22.528C239.491 22.2613 239.149 22.128 238.723 22.128C238.296 22.128 237.891 22.2293 237.507 22.432C237.133 22.624 236.739 22.9013 236.323 23.264L235.155 21.936C235.464 21.6587 235.789 21.408 236.131 21.184C236.472 20.9493 236.867 20.7627 237.315 20.624C237.773 20.4853 238.301 20.416 238.899 20.416C239.592 20.416 240.189 20.5493 240.691 20.816C241.203 21.072 241.597 21.4293 241.875 21.888C242.152 22.3467 242.291 22.88 242.291 23.488C242.291 23.9573 242.221 24.3893 242.083 24.784C241.955 25.1787 241.763 25.568 241.507 25.952C241.251 26.336 240.947 26.7307 240.595 27.136C240.243 27.5413 239.848 27.984 239.411 28.464L237.859 30.16V30.256H242.611V32ZM251.619 29.552H250.275V32H248.179V29.552H243.491V28.048L248.243 20.544H250.275V27.904H251.619V29.552ZM248.179 25.344C248.179 25.12 248.179 24.8907 248.179 24.656C248.189 24.4107 248.2 24.1707 248.211 23.936C248.221 23.7013 248.232 23.488 248.243 23.296C248.253 23.104 248.259 22.9547 248.259 22.848H248.195C248.109 23.0507 248.013 23.2587 247.907 23.472C247.8 23.6853 247.693 23.8933 247.587 24.096L245.395 27.904H248.179V25.344ZM252.563 23.024C252.563 22.5333 252.675 22.096 252.899 21.712C253.123 21.3173 253.427 21.0027 253.811 20.768C254.195 20.5333 254.616 20.416 255.075 20.416C255.544 20.416 255.966 20.5333 256.339 20.768C256.723 21.0027 257.027 21.3173 257.251 21.712C257.486 22.096 257.603 22.5333 257.603 23.024C257.603 23.5147 257.486 23.9573 257.251 24.352C257.027 24.7467 256.723 25.0613 256.339 25.296C255.966 25.52 255.544 25.632 255.075 25.632C254.616 25.632 254.195 25.52 253.811 25.296C253.427 25.0613 253.123 24.7467 252.899 24.352C252.675 23.9573 252.563 23.5147 252.563 23.024ZM253.891 23.024C253.891 23.3867 254.008 23.7013 254.243 23.968C254.478 24.224 254.76 24.352 255.091 24.352C255.304 24.352 255.496 24.2933 255.667 24.176C255.848 24.0587 255.992 23.8987 256.099 23.696C256.206 23.4933 256.259 23.2693 256.259 23.024C256.259 22.6507 256.142 22.336 255.907 22.08C255.683 21.824 255.411 21.696 255.091 21.696C254.76 21.696 254.478 21.824 254.243 22.08C254.008 22.336 253.891 22.6507 253.891 23.024ZM268.251 20.576L264.251 32H262.315L266.315 20.576H268.251ZM276.666 26.656V29.712H278.81V26.656H276.666ZM276.65 21.376V21.712C276.65 23.296 275.61 24.848 273.242 25.472L274.202 27.104C277.018 26.352 278.346 24.192 278.346 21.712V21.376H276.65ZM277.098 21.376V21.712C277.098 24.128 278.474 26.256 281.29 26.976L282.234 25.344C279.882 24.736 278.81 23.232 278.81 21.712V21.376H277.098ZM273.69 20.352V22.032H281.802V20.352H273.69ZM276.666 18.736V21.088H278.81V18.736H276.666ZM283.114 18.592V33.456H285.242V18.592H283.114ZM273.194 30.704C275.754 30.688 279.242 30.656 282.458 30.032L282.298 28.48C279.178 28.944 275.53 28.976 272.938 28.976L273.194 30.704ZM297.897 18.592V33.456H300.025V18.592H297.897ZM295.305 23.776V25.488H298.393V23.776H295.305ZM291.017 20.944V22.256C291.017 25.008 289.849 27.84 287.369 29.008L288.617 30.688C291.385 29.328 292.697 25.872 292.697 22.256V20.944H291.017ZM291.513 20.944V22.256C291.513 25.76 292.793 29.072 295.577 30.384L296.809 28.72C294.329 27.6 293.177 24.864 293.177 22.256V20.944H291.513ZM287.977 20.032V21.744H296.217V20.032H287.977ZM302.552 30.976C302.552 30.528 302.669 30.2133 302.904 30.032C303.149 29.84 303.443 29.744 303.784 29.744C304.125 29.744 304.413 29.8347 304.648 30.016C304.893 30.1973 305.016 30.5173 305.016 30.976C305.016 31.4133 304.893 31.728 304.648 31.92C304.413 32.112 304.125 32.208 303.784 32.208C303.443 32.208 303.149 32.112 302.904 31.92C302.669 31.728 302.552 31.4133 302.552 30.976ZM302.552 24.384C302.552 23.9253 302.669 23.6053 302.904 23.424C303.149 23.232 303.443 23.136 303.784 23.136C304.125 23.136 304.413 23.2267 304.648 23.408C304.893 23.5893 305.016 23.9147 305.016 24.384C305.016 24.8213 304.893 25.136 304.648 25.328C304.413 25.52 304.125 25.616 303.784 25.616C303.443 25.616 303.149 25.52 302.904 25.328C302.669 25.136 302.552 24.8213 302.552 24.384ZM317.845 32H310.405V30.512L313.109 27.568C313.653 26.9813 314.09 26.48 314.421 26.064C314.752 25.6373 314.992 25.2427 315.141 24.88C315.301 24.5173 315.381 24.1227 315.381 23.696C315.381 23.1733 315.248 22.784 314.981 22.528C314.725 22.2613 314.384 22.128 313.957 22.128C313.53 22.128 313.125 22.2293 312.741 22.432C312.368 22.624 311.973 22.9013 311.557 23.264L310.389 21.936C310.698 21.6587 311.024 21.408 311.365 21.184C311.706 20.9493 312.101 20.7627 312.549 20.624C313.008 20.4853 313.536 20.416 314.133 20.416C314.826 20.416 315.424 20.5493 315.925 20.816C316.437 21.072 316.832 21.4293 317.109 21.888C317.386 22.3467 317.525 22.88 317.525 23.488C317.525 23.9573 317.456 24.3893 317.317 24.784C317.189 25.1787 316.997 25.568 316.741 25.952C316.485 26.336 316.181 26.7307 315.829 27.136C315.477 27.5413 315.082 27.984 314.645 28.464L313.093 30.16V30.256H317.845V32ZM322.949 24.816C323.621 24.816 324.213 24.9493 324.725 25.216C325.237 25.4827 325.637 25.872 325.925 26.384C326.224 26.8853 326.373 27.504 326.373 28.24C326.373 29.0507 326.213 29.7493 325.893 30.336C325.573 30.9227 325.098 31.376 324.469 31.696C323.85 32.0053 323.077 32.16 322.149 32.16C321.584 32.16 321.05 32.1067 320.549 32C320.048 31.8933 319.616 31.7387 319.253 31.536V29.744C319.626 29.9573 320.074 30.1333 320.597 30.272C321.12 30.4107 321.61 30.48 322.069 30.48C322.517 30.48 322.901 30.4107 323.221 30.272C323.541 30.1227 323.786 29.8987 323.957 29.6C324.128 29.2907 324.213 28.9013 324.213 28.432C324.213 27.792 324.032 27.3067 323.669 26.976C323.306 26.6453 322.746 26.48 321.989 26.48C321.712 26.48 321.418 26.5067 321.109 26.56C320.8 26.6133 320.544 26.6667 320.341 26.72L319.461 26.24L319.877 20.576H325.637V22.336H321.717L321.509 24.976C321.68 24.944 321.872 24.912 322.085 24.88C322.309 24.8373 322.597 24.816 322.949 24.816ZM327.797 23.024C327.797 22.5333 327.909 22.096 328.133 21.712C328.357 21.3173 328.661 21.0027 329.045 20.768C329.429 20.5333 329.851 20.416 330.309 20.416C330.779 20.416 331.2 20.5333 331.573 20.768C331.957 21.0027 332.261 21.3173 332.485 21.712C332.72 22.096 332.837 22.5333 332.837 23.024C332.837 23.5147 332.72 23.9573 332.485 24.352C332.261 24.7467 331.957 25.0613 331.573 25.296C331.2 25.52 330.779 25.632 330.309 25.632C329.851 25.632 329.429 25.52 329.045 25.296C328.661 25.0613 328.357 24.7467 328.133 24.352C327.909 23.9573 327.797 23.5147 327.797 23.024ZM329.125 23.024C329.125 23.3867 329.243 23.7013 329.477 23.968C329.712 24.224 329.995 24.352 330.325 24.352C330.539 24.352 330.731 24.2933 330.901 24.176C331.083 24.0587 331.227 23.8987 331.333 23.696C331.44 23.4933 331.493 23.2693 331.493 23.024C331.493 22.6507 331.376 22.336 331.141 22.08C330.917 21.824 330.645 21.696 330.325 21.696C329.995 21.696 329.712 21.824 329.477 22.08C329.243 22.336 329.125 22.6507 329.125 23.024Z" fill="#54B877"/>
<path d="M356.176 18.608V27.184H358.304V18.608H356.176ZM357.712 22.064V23.808H360.272V22.064H357.712ZM351.936 19.568V20.64C351.936 22.928 350.096 24.864 346.528 25.84L347.392 27.536C351.76 26.32 354.224 23.552 354.224 19.568H351.936ZM347.232 19.568V21.28H353.232V19.568H347.232ZM353.504 27.376C350.512 27.376 348.512 28.544 348.512 30.4C348.512 32.272 350.512 33.44 353.504 33.44C356.496 33.44 358.464 32.272 358.464 30.4C358.464 28.544 356.496 27.376 353.504 27.376ZM353.504 29.024C355.312 29.024 356.384 29.504 356.384 30.4C356.384 31.312 355.312 31.792 353.504 31.792C351.696 31.792 350.624 31.312 350.624 30.4C350.624 29.504 351.696 29.024 353.504 29.024ZM366.943 19.04V19.728C366.943 21.472 365.263 23.408 361.855 23.856L362.687 25.568C366.575 24.992 368.815 22.576 368.815 19.728V19.04H366.943ZM367.343 19.04V19.728C367.343 22.576 369.583 24.992 373.471 25.568L374.287 23.856C370.895 23.408 369.199 21.456 369.199 19.728V19.04H367.343ZM366.959 28V33.424H369.071V28H366.959ZM361.375 26.656V28.384H374.767V26.656H361.375ZM379.438 25.376V27.504H381.566V25.376H379.438ZM385.71 18.624V28.704H387.838V18.624H385.71ZM387.086 22.848V24.592H389.694V22.848H387.086ZM376.142 28.416C378.734 28.4 382.126 28.368 385.214 27.84L385.054 26.384C382.062 26.752 378.558 26.768 375.902 26.768L376.142 28.416ZM377.789 29.296V30.928H385.71V33.424H387.838V29.296H377.789ZM376.286 19.696V21.216H384.686V19.696H376.286ZM380.494 21.568C378.302 21.568 376.878 22.416 376.878 23.776C376.878 25.136 378.302 25.984 380.494 25.984C382.67 25.984 384.094 25.136 384.094 23.776C384.094 22.416 382.67 21.568 380.494 21.568ZM380.494 22.96C381.486 22.96 382.078 23.216 382.078 23.776C382.078 24.304 381.486 24.592 380.494 24.592C379.486 24.592 378.894 24.304 378.894 23.776C378.894 23.216 379.486 22.96 380.494 22.96ZM379.438 18.496V20.384H381.566V18.496H379.438ZM390.796 25.152V26.704H404.22V25.152H390.796ZM392.3 27.552V28.992H400.524V29.728H392.332V32.336H394.444V31.072H402.62V27.552H392.3ZM392.332 31.888V33.328H403.036V31.888H392.332ZM392.444 18.848V20.272H400.492V20.992H392.46V23.552H394.572V22.336H402.588V18.848H392.444ZM392.46 23.056V24.496H402.86V23.056H392.46ZM394.092 25.68V28.464H396.204V25.68H394.092ZM398.812 25.68V28.464H400.924V25.68H398.812ZM405.755 30.976C405.755 30.528 405.872 30.2133 406.107 30.032C406.352 29.84 406.646 29.744 406.987 29.744C407.328 29.744 407.616 29.8347 407.851 30.016C408.096 30.1973 408.219 30.5173 408.219 30.976C408.219 31.4133 408.096 31.728 407.851 31.92C407.616 32.112 407.328 32.208 406.987 32.208C406.646 32.208 406.352 32.112 406.107 31.92C405.872 31.728 405.755 31.4133 405.755 30.976ZM405.755 24.384C405.755 23.9253 405.872 23.6053 406.107 23.424C406.352 23.232 406.646 23.136 406.987 23.136C407.328 23.136 407.616 23.2267 407.851 23.408C408.096 23.5893 408.219 23.9147 408.219 24.384C408.219 24.8213 408.096 25.136 407.851 25.328C407.616 25.52 407.328 25.616 406.987 25.616C406.646 25.616 406.352 25.52 406.107 25.328C405.872 25.136 405.755 24.8213 405.755 24.384ZM421.048 26.272C421.048 27.2 420.984 28.0267 420.856 28.752C420.728 29.4773 420.509 30.096 420.2 30.608C419.901 31.1093 419.512 31.4933 419.032 31.76C418.563 32.0267 417.987 32.16 417.304 32.16C416.461 32.16 415.763 31.9253 415.208 31.456C414.664 30.9867 414.259 30.3147 413.992 29.44C413.736 28.5547 413.608 27.4987 413.608 26.272C413.608 25.0453 413.725 23.9947 413.96 23.12C414.205 22.2453 414.6 21.5733 415.144 21.104C415.688 20.6347 416.413 20.4 417.32 20.4C418.173 20.4 418.872 20.6347 419.416 21.104C419.971 21.5627 420.381 22.2347 420.648 23.12C420.915 23.9947 421.048 25.0453 421.048 26.272ZM415.736 26.288C415.736 27.216 415.784 27.9947 415.88 28.624C415.976 29.2427 416.141 29.712 416.376 30.032C416.611 30.3413 416.925 30.496 417.32 30.496C417.715 30.496 418.024 30.3413 418.248 30.032C418.483 29.7227 418.653 29.2533 418.76 28.624C418.867 27.9947 418.92 27.216 418.92 26.288C418.92 25.3493 418.867 24.5707 418.76 23.952C418.653 23.3227 418.483 22.8533 418.248 22.544C418.024 22.224 417.715 22.064 417.32 22.064C416.925 22.064 416.611 22.224 416.376 22.544C416.141 22.8533 415.976 23.3173 415.88 23.936C415.784 24.5547 415.736 25.3387 415.736 26.288ZM424.632 20.416C425.443 20.416 426.067 20.7307 426.504 21.36C426.942 21.9787 427.16 22.8533 427.16 23.984C427.16 25.1147 426.952 26 426.536 26.64C426.131 27.2693 425.496 27.584 424.632 27.584C424.11 27.584 423.662 27.44 423.288 27.152C422.926 26.864 422.643 26.4533 422.44 25.92C422.248 25.376 422.152 24.7307 422.152 23.984C422.152 22.8533 422.355 21.9787 422.76 21.36C423.166 20.7307 423.79 20.416 424.632 20.416ZM424.648 21.808C424.371 21.808 424.168 21.9893 424.04 22.352C423.923 22.7147 423.864 23.2587 423.864 23.984C423.864 24.72 423.923 25.2747 424.04 25.648C424.168 26.0107 424.371 26.192 424.648 26.192C424.936 26.192 425.144 26.0107 425.272 25.648C425.4 25.2747 425.464 24.7253 425.464 24C425.464 23.264 425.4 22.7147 425.272 22.352C425.144 21.9893 424.936 21.808 424.648 21.808ZM432.152 20.576L426.2 32H424.52L430.472 20.576H432.152ZM432.024 24.976C432.568 24.976 433.027 25.12 433.4 25.408C433.774 25.6853 434.056 26.0907 434.248 26.624C434.451 27.1467 434.552 27.7867 434.552 28.544C434.552 29.6747 434.344 30.56 433.928 31.2C433.512 31.8293 432.878 32.144 432.024 32.144C431.502 32.144 431.054 32 430.68 31.712C430.318 31.424 430.035 31.0133 429.832 30.48C429.64 29.936 429.544 29.2907 429.544 28.544C429.544 27.4133 429.747 26.5387 430.152 25.92C430.568 25.2907 431.192 24.976 432.024 24.976ZM432.04 26.384C431.763 26.384 431.56 26.5653 431.432 26.928C431.315 27.28 431.256 27.824 431.256 28.56C431.256 29.296 431.315 29.8507 431.432 30.224C431.56 30.5867 431.763 30.768 432.04 30.768C432.318 30.768 432.52 30.5867 432.648 30.224C432.787 29.8613 432.856 29.3067 432.856 28.56C432.856 27.824 432.787 27.28 432.648 26.928C432.52 26.5653 432.318 26.384 432.04 26.384Z" fill="#54B877"/>
<path d="M27.0435 40.8425C34.7413 40.8425 40.9816 34.7768 40.9816 27.2944C40.9816 19.8121 34.7413 13.7464 27.0435 13.7464C19.3457 13.7464 13.1055 19.8121 13.1055 27.2944C13.1055 34.7768 19.3457 40.8425 27.0435 40.8425Z" fill="#FFDB7D"/>
<path d="M28.7015 4.31768C28.7015 3.42426 27.9577 2.7 27.0402 2.7C26.1227 2.7 25.3789 3.42426 25.3789 4.31768V8.5583C25.3789 9.45171 26.1227 10.176 27.0402 10.176C27.9577 10.176 28.7015 9.45171 28.7015 8.5583V4.31768Z" fill="#FFDB7D"/>
<path d="M13.115 8.65994C12.5242 7.97554 11.4755 7.88544 10.7726 8.45869C10.0698 9.03194 9.97895 10.0515 10.5698 10.7359L13.374 13.9844C13.9649 14.6688 15.0136 14.7589 15.7164 14.1856C16.4193 13.6124 16.5101 12.5928 15.9193 11.9084L13.115 8.65994Z" fill="#FFDB7D"/>
<path d="M4.04795 21.717C3.14277 21.5618 2.27983 22.148 2.12051 23.0263C1.96119 23.9046 2.56582 24.7423 3.47099 24.8975L7.76741 25.6338C8.67259 25.789 9.53553 25.2028 9.69485 24.3245C9.85417 23.4462 9.24954 22.6085 8.34437 22.4533L4.04795 21.717Z" fill="#FFDB7D"/>
<path d="M5.73313 37.3839C4.93713 37.8306 4.66374 38.8189 5.12249 39.5912C5.58124 40.3635 6.59841 40.6275 7.3944 40.1808L11.1726 38.0605C11.9686 37.6138 12.242 36.6256 11.7833 35.8532C11.3245 35.0809 10.3073 34.8169 9.51134 35.2636L5.73313 37.3839Z" fill="#FFDB7D"/>
<path d="M17.3059 48.3591C16.9934 49.1989 17.4392 50.1255 18.3017 50.4288C19.1641 50.732 20.1166 50.297 20.4291 49.4572L21.9124 45.471C22.2249 44.6312 21.7791 43.7046 20.9167 43.4013C20.0542 43.0981 19.1018 43.5331 18.7892 44.3729L17.3059 48.3591Z" fill="#FFDB7D"/>
<path d="M33.5664 49.4363C33.8808 50.2759 34.8346 50.7092 35.6967 50.4042C36.5589 50.0992 37.003 49.1713 36.6886 48.3318L35.1965 44.3469C34.8821 43.5074 33.9283 43.074 33.0662 43.3791C32.204 43.6841 31.7599 44.6119 32.0743 45.4515L33.5664 49.4363Z" fill="#FFDB7D"/>
<path d="M46.6826 40.1832C47.4786 40.6299 48.4958 40.366 48.9545 39.5936C49.4133 38.8213 49.1399 37.833 48.3439 37.3863L44.5657 35.266C43.7697 34.8193 42.7525 35.0833 42.2938 35.8556C41.835 36.628 42.1084 37.6162 42.9044 38.0629L46.6826 40.1832Z" fill="#FFDB7D"/>
<path d="M50.6099 24.8946C51.515 24.7394 52.1197 23.9017 51.9604 23.0234C51.801 22.1451 50.9381 21.5589 50.0329 21.7141L45.7365 22.4504C44.8313 22.6056 44.2267 23.4433 44.386 24.3216C44.5453 25.1999 45.4083 25.7861 46.3134 25.6309L50.6099 24.8946Z" fill="#FFDB7D"/>
<path d="M43.5106 10.7354C44.1014 10.051 44.0106 9.03146 43.3078 8.45821C42.6049 7.88496 41.5562 7.97506 40.9654 8.65946L38.1611 11.908C37.5703 12.5924 37.6611 13.6119 38.364 14.1851C39.0668 14.7584 40.1155 14.6683 40.7063 13.9839L43.5106 10.7354Z" fill="#FFDB7D"/>
<path d="M127.98 13.68C127.98 13.0933 128.113 12.56 128.38 12.08C128.66 11.6 129.027 11.22 129.48 10.94C129.947 10.66 130.46 10.52 131.02 10.52C131.567 10.52 132.067 10.66 132.52 10.94C132.987 11.22 133.353 11.6 133.62 12.08C133.9 12.56 134.04 13.0933 134.04 13.68C134.04 14.28 133.9 14.82 133.62 15.3C133.353 15.7667 132.987 16.14 132.52 16.42C132.067 16.7 131.567 16.84 131.02 16.84C130.46 16.84 129.947 16.7 129.48 16.42C129.027 16.14 128.66 15.7667 128.38 15.3C128.113 14.82 127.98 14.28 127.98 13.68ZM129.4 13.68C129.4 14.1733 129.56 14.5933 129.88 14.94C130.2 15.2867 130.58 15.46 131.02 15.46C131.327 15.46 131.6 15.38 131.84 15.22C132.08 15.06 132.273 14.8467 132.42 14.58C132.567 14.3133 132.64 14.0133 132.64 13.68C132.64 13.1867 132.48 12.7667 132.16 12.42C131.853 12.0733 131.473 11.9 131.02 11.9C130.58 11.9 130.2 12.0733 129.88 12.42C129.56 12.7667 129.4 13.1867 129.4 13.68ZM142.547 12.38C141.907 12.38 141.327 12.5067 140.807 12.76C140.301 13 139.867 13.36 139.507 13.84C139.161 14.32 138.894 14.9 138.707 15.58C138.521 16.26 138.427 17.0267 138.427 17.88C138.427 19 138.581 19.9733 138.887 20.8C139.194 21.6133 139.654 22.24 140.267 22.68C140.881 23.12 141.641 23.34 142.547 23.34C143.134 23.34 143.694 23.2867 144.227 23.18C144.761 23.06 145.301 22.9067 145.847 22.72V24.58C145.314 24.7933 144.767 24.9467 144.207 25.04C143.661 25.1467 143.021 25.2 142.287 25.2C140.901 25.2 139.754 24.9 138.847 24.3C137.941 23.7 137.261 22.8467 136.807 21.74C136.354 20.6333 136.127 19.34 136.127 17.86C136.127 16.78 136.267 15.7933 136.547 14.9C136.827 13.9933 137.241 13.2133 137.787 12.56C138.334 11.9067 139.007 11.4067 139.807 11.06C140.607 10.7 141.521 10.52 142.547 10.52C143.241 10.52 143.921 10.6 144.587 10.76C145.254 10.9067 145.847 11.12 146.367 11.4L145.587 13.2C145.147 12.9867 144.667 12.8 144.147 12.64C143.641 12.4667 143.107 12.38 142.547 12.38Z" fill="#54B877"/>
<path d="M96.1753 45H73.8553V40.536L81.9673 31.704C83.5993 29.944 84.9113 28.44 85.9033 27.192C86.8953 25.912 87.6153 24.728 88.0633 23.64C88.5433 22.552 88.7833 21.368 88.7833 20.088C88.7833 18.52 88.3833 17.352 87.5833 16.584C86.8153 15.784 85.7913 15.384 84.5113 15.384C83.2313 15.384 82.0153 15.688 80.8633 16.296C79.7433 16.872 78.5593 17.704 77.3113 18.792L73.8073 14.808C74.7352 13.976 75.7113 13.224 76.7353 12.552C77.7593 11.848 78.9433 11.288 80.2873 10.872C81.6633 10.456 83.2473 10.248 85.0393 10.248C87.1193 10.248 88.9113 10.648 90.4153 11.448C91.9513 12.216 93.1353 13.288 93.9673 14.664C94.7993 16.04 95.2153 17.64 95.2153 19.464C95.2153 20.872 95.0073 22.168 94.5913 23.352C94.2073 24.536 93.6313 25.704 92.8633 26.856C92.0953 28.008 91.1833 29.192 90.1273 30.408C89.0713 31.624 87.8873 32.952 86.5753 34.392L81.9193 39.48V39.768H96.1753V45ZM122.144 27.816C122.144 30.6 121.952 33.08 121.568 35.256C121.184 37.432 120.528 39.288 119.6 40.824C118.704 42.328 117.536 43.48 116.096 44.28C114.688 45.08 112.96 45.48 110.912 45.48C108.384 45.48 106.288 44.776 104.624 43.368C102.992 41.96 101.776 39.944 100.976 37.32C100.208 34.664 99.824 31.496 99.824 27.816C99.824 24.136 100.176 20.984 100.88 18.36C101.616 15.736 102.8 13.72 104.432 12.312C106.064 10.904 108.24 10.2 110.96 10.2C113.52 10.2 115.616 10.904 117.248 12.312C118.912 13.688 120.144 15.704 120.944 18.36C121.744 20.984 122.144 24.136 122.144 27.816ZM106.208 27.864C106.208 30.648 106.352 32.984 106.64 34.872C106.928 36.728 107.424 38.136 108.128 39.096C108.832 40.024 109.776 40.488 110.96 40.488C112.144 40.488 113.072 40.024 113.744 39.096C114.448 38.168 114.96 36.76 115.28 34.872C115.6 32.984 115.76 30.648 115.76 27.864C115.76 25.048 115.6 22.712 115.28 20.856C114.96 18.968 114.448 17.56 113.744 16.632C113.072 15.672 112.144 15.192 110.96 15.192C109.776 15.192 108.832 15.672 108.128 16.632C107.424 17.56 106.928 18.952 106.64 20.808C106.352 22.664 106.208 25.016 106.208 27.864Z" fill="#54B877"/>
<path d="M172 8L172 49" stroke="#CBEAD6" stroke-width="2" stroke-linecap="square"/>
</svg>
