<svg width="61" height="61" viewBox="0 0 61 61" fill="none" xmlns="http://www.w3.org/2000/svg">
<path d="M0.671875 7.88413C0.671875 3.71942 4.04804 0.343262 8.21275 0.343262H53.458C57.6227 0.343262 60.9989 3.71943 60.9989 7.88414V53.1294C60.9989 57.2941 57.6227 60.6703 53.458 60.6703H8.21275C4.04804 60.6703 0.671875 57.2941 0.671875 53.1294V7.88413Z" fill="white"/>
<path d="M30.833 16.3677C21.9827 16.3677 14.8086 21.9799 14.8086 28.9033C14.8086 33.4099 17.8486 37.3587 22.4103 39.5684C22.0749 40.8072 21.1966 44.0545 21.0206 44.7494C20.8039 45.612 21.3402 45.6005 21.6914 45.368C21.967 45.1864 26.0828 42.4181 27.8585 41.2228C28.8223 41.3641 29.816 41.4389 30.833 41.4389C39.6832 41.4389 46.8573 35.8258 46.8573 28.9033C46.8573 21.9808 39.6832 16.3677 30.833 16.3677Z" fill="#391B1B"/>
<path d="M24.3925 25.2117H19.7071C19.2663 25.2117 18.9102 25.5649 18.9102 26.0003C18.9102 26.4357 19.2671 26.7889 19.7071 26.7889H21.2304V32.3437C21.2304 32.5457 21.3134 32.7445 21.4595 32.8883C21.6023 33.0312 21.8024 33.1134 22.0074 33.1134H22.1776C22.3818 33.1134 22.5811 33.0312 22.7247 32.8883C22.8708 32.7445 22.9538 32.5466 22.9538 32.3437V26.7889H24.3925C24.8333 26.7889 25.1902 26.4357 25.1902 26.0003C25.1902 25.5649 24.8333 25.2117 24.3925 25.2117V25.2117Z" fill="#FAE300"/>
<path d="M35.6536 31.6299H33.4745V25.9568C33.4745 25.4836 33.0876 25.1008 32.6103 25.1008C32.1329 25.1008 31.7461 25.4836 31.7461 25.9568V32.0718C31.7461 32.1195 31.7519 32.1638 31.7594 32.209C31.7511 32.2534 31.7461 32.2994 31.7461 32.3454C31.7461 32.7413 32.069 33.0617 32.4692 33.0617H35.6536C36.0546 33.0617 36.3767 32.7413 36.3767 32.3454C36.3767 31.9494 36.0537 31.6299 35.6536 31.6299V31.6299Z" fill="#FAE300"/>
<path d="M42.6117 31.8903L40.1835 28.7342L42.3776 26.5622C42.6748 26.269 42.6748 25.7917 42.3776 25.4976C42.0804 25.2035 41.5989 25.2035 41.3009 25.4976L38.5847 28.1854V25.9568C38.5847 25.4836 38.1978 25.1008 37.7205 25.1008C37.2431 25.1008 36.8555 25.4836 36.8555 25.9568V32.2599C36.8555 32.7331 37.2423 33.1159 37.7205 33.1159C38.1987 33.1159 38.5847 32.7339 38.5847 32.2599V30.3155L39.0786 29.8276L41.3756 32.8103C41.6313 33.1479 42.117 33.2178 42.4581 32.9623C42.7993 32.7085 42.8682 32.2287 42.6117 31.8903V31.8903Z" fill="#FAE300"/>
<path d="M31.0982 32.0949L28.763 25.7729C28.763 25.7729 28.7571 25.768 28.7555 25.7655C28.6061 25.3802 28.1752 25.1001 27.6613 25.1001C27.091 25.1001 26.6195 25.4451 26.5257 25.8961C26.5099 25.9298 26.4942 25.9635 26.4809 25.9996L24.1847 32.0949C24.0427 32.495 24.2552 32.932 24.6579 33.0724C25.0613 33.2129 25.5038 33.0026 25.6457 32.6034L26.0434 31.4813H29.2395L29.6363 32.6034C29.7782 33.0026 30.2207 33.2129 30.6241 33.0724C31.0276 32.932 31.2401 32.495 31.0982 32.0949ZM26.5506 30.0478L27.6248 27.0149C27.6373 27.0149 27.6472 27.0182 27.6597 27.0182L28.7331 30.0478H26.5514H26.5506Z" fill="#FAE300"/>
</svg>
