<svg width="50" height="50" viewBox="0 0 50 50" fill="none" xmlns="http://www.w3.org/2000/svg">
<circle cx="25" cy="25" r="24" stroke="#EDF5F0" stroke-width="2"/>
<path d="M24.9688 13C17.8062 13 12 17.601 12 23.2768C12 26.9713 14.4603 30.2085 18.1522 32.0201C17.8808 33.0356 17.1699 35.6978 17.0275 36.2675C16.8521 36.9746 17.2862 36.9652 17.5704 36.7746C17.7934 36.6258 21.1245 34.3563 22.5616 33.3764C23.3416 33.4922 24.1458 33.5535 24.9688 33.5535C32.1315 33.5535 37.9377 28.9519 37.9377 23.2768C37.9377 17.6016 32.1315 13 24.9688 13Z" fill="#391B1B"/>
<path d="M19.7533 20.2502H15.9614C15.6046 20.2502 15.3164 20.5398 15.3164 20.8968C15.3164 21.2537 15.6053 21.5433 15.9614 21.5433H17.1942V26.0971C17.1942 26.2628 17.2614 26.4257 17.3797 26.5436C17.4952 26.6608 17.6572 26.7281 17.8231 26.7281H17.9608C18.1261 26.7281 18.2874 26.6608 18.4036 26.5436C18.5218 26.4257 18.589 26.2634 18.589 26.0971V21.5433H19.7533C20.1101 21.5433 20.399 21.2537 20.399 20.8968C20.399 20.5398 20.1101 20.2502 19.7533 20.2502Z" fill="#FAE300"/>
<path d="M28.8695 25.512H27.1058V20.8612C27.1058 20.4732 26.7928 20.1594 26.4064 20.1594C26.0201 20.1594 25.707 20.4732 25.707 20.8612V25.8743C25.707 25.9133 25.7117 25.9497 25.7178 25.9867C25.7111 26.0231 25.707 26.0608 25.707 26.0985C25.707 26.4231 25.9684 26.6858 26.2922 26.6858H28.8695C29.194 26.6858 29.4546 26.4231 29.4546 26.0985C29.4546 25.7739 29.1933 25.512 28.8695 25.512Z" fill="#FAE300"/>
<path d="M34.5024 25.7254L32.5372 23.1381L34.3129 21.3575C34.5535 21.1171 34.5535 20.7258 34.3129 20.4847C34.0724 20.2436 33.6827 20.2436 33.4415 20.4847L31.2432 22.6882V20.8612C31.2432 20.4732 30.9301 20.1594 30.5438 20.1594C30.1575 20.1594 29.8438 20.4732 29.8438 20.8612V26.0285C29.8438 26.4164 30.1568 26.7302 30.5438 26.7302C30.9308 26.7302 31.2432 26.4171 31.2432 26.0285V24.4344L31.643 24.0344L33.502 26.4797C33.7089 26.7565 34.102 26.8137 34.3781 26.6043C34.6542 26.3962 34.71 26.0029 34.5024 25.7254Z" fill="#FAE300"/>
<path d="M25.1817 25.8931L23.2917 20.7102C23.2917 20.7102 23.287 20.7062 23.2857 20.7042C23.1647 20.3883 22.816 20.1587 22.4002 20.1587C21.9386 20.1587 21.557 20.4415 21.4811 20.8113C21.4683 20.8389 21.4555 20.8665 21.4448 20.8961L19.5864 25.8931C19.4716 26.221 19.6435 26.5793 19.9694 26.6945C20.2959 26.8096 20.654 26.6372 20.7689 26.3099L21.0907 25.39H23.6774L23.9985 26.3099C24.1134 26.6372 24.4715 26.8096 24.798 26.6945C25.1245 26.5793 25.2965 26.221 25.1817 25.8931ZM21.5012 24.2148L22.3706 21.7285C22.3807 21.7285 22.3887 21.7312 22.3988 21.7312L23.2675 24.2148H21.5019H21.5012Z" fill="#FAE300"/>
</svg>
