<svg width="61" height="61" viewBox="0 0 61 61" fill="none" xmlns="http://www.w3.org/2000/svg">
<path d="M0.671875 7.60362C0.671875 3.43891 4.04804 0.0627441 8.21275 0.0627441H53.458C57.6227 0.0627441 60.9989 3.43891 60.9989 7.60362V52.8489C60.9989 57.0136 57.6227 60.3898 53.458 60.3898H8.21275C4.04804 60.3898 0.671875 57.0136 0.671875 52.8489V7.60362Z" fill="white"/>
<path d="M32.7756 28.2861C31.7462 27.257 30.3502 26.679 28.8946 26.679C27.439 26.679 26.043 27.257 25.0136 28.2861L21.1313 32.1671C20.1018 33.1966 19.5234 34.5929 19.5234 36.0488C19.5234 37.5047 20.1018 38.9009 21.1313 39.9304C22.1608 40.9599 23.557 41.5383 25.0129 41.5383C26.4688 41.5383 27.8651 40.9599 28.8946 39.9304L30.8351 37.9899" stroke="#54B877" stroke-width="3.01635" stroke-linecap="round" stroke-linejoin="round"/>
<path d="M28.8984 32.1672C29.9279 33.1963 31.3239 33.7744 32.7795 33.7744C34.2351 33.7744 35.631 33.1963 36.6605 32.1672L40.5428 28.2862C41.5723 27.2567 42.1506 25.8605 42.1506 24.4045C42.1506 22.9486 41.5723 21.5524 40.5428 20.5229C39.5133 19.4934 38.117 18.915 36.6611 18.915C35.2052 18.915 33.809 19.4934 32.7795 20.5229L30.839 22.4634" stroke="#54B877" stroke-width="3.01635" stroke-linecap="round" stroke-linejoin="round"/>
</svg>
