<svg width="61" height="62" viewBox="0 0 61 62" fill="none" xmlns="http://www.w3.org/2000/svg">
<path d="M0.671875 8.24375C0.671875 4.07904 4.04804 0.702881 8.21275 0.702881H53.458C57.6227 0.702881 60.9989 4.07905 60.9989 8.24376V53.489C60.9989 57.6537 57.6227 61.0299 53.458 61.0299H8.21275C4.04804 61.0299 0.671875 57.6537 0.671875 53.489V8.24375Z" fill="white"/>
<path d="M45.9163 22.3445C44.8065 22.818 43.6136 23.1372 42.3622 23.2814C43.6402 22.5449 44.6213 21.3799 45.0831 19.9909C43.8871 20.6731 42.5633 21.1672 41.1534 21.4341C40.0243 20.2773 38.4164 19.5552 36.6362 19.5552C33.2182 19.5552 30.4473 22.2187 30.4473 25.503C30.4473 25.9694 30.5015 26.4236 30.6079 26.8583C25.4651 26.6097 20.9042 24.2418 17.8523 20.6435C17.3192 21.5221 17.0149 22.5439 17.0149 23.6343C17.0149 25.6984 18.1077 27.519 19.7678 28.5858C18.7537 28.5552 17.7991 28.2872 16.9649 27.8422C16.9649 27.8668 16.9649 27.8924 16.9649 27.9169C16.9649 30.7993 19.0984 33.2029 21.929 33.7502C21.4097 33.8862 20.8627 33.9588 20.2988 33.9588C19.8997 33.9588 19.5124 33.921 19.1346 33.8524C19.9221 36.2152 22.2078 37.9356 24.916 37.9837C22.7984 39.5793 20.1296 40.5306 17.2298 40.5306C16.7308 40.5306 16.2381 40.5019 15.7539 40.4477C18.4929 42.1354 21.746 43.1204 25.2405 43.1204C36.6234 43.1204 42.8485 34.056 42.8485 26.1955C42.8485 25.9377 42.8421 25.681 42.8304 25.4263C44.0392 24.5876 45.0885 23.5402 45.9185 22.3475L45.9163 22.3445Z" fill="#2CAAE1"/>
</svg>
