<svg width="50" height="50" viewBox="0 0 50 50" fill="none" xmlns="http://www.w3.org/2000/svg">
<circle cx="25" cy="25" r="24" stroke="#EDF5F0" stroke-width="2"/>
<path d="M37.9991 18.3675C37.0792 18.7695 36.0906 19.0403 35.0534 19.1627C36.1126 18.5377 36.9258 17.5488 37.3085 16.3698C36.3172 16.9489 35.2201 17.3682 34.0515 17.5948C33.1157 16.6129 31.7831 16 30.3076 16C27.4747 16 25.1781 18.2607 25.1781 21.0484C25.1781 21.4443 25.2231 21.8298 25.3113 22.1987C21.0488 21.9878 17.2687 19.9779 14.7392 16.9237C14.2974 17.6695 14.0451 18.5368 14.0451 19.4623C14.0451 21.2142 14.9509 22.7596 16.3267 23.6651C15.4862 23.639 14.6951 23.4116 14.0037 23.0339C14.0037 23.0547 14.0037 23.0764 14.0037 23.0973C14.0037 25.5438 15.772 27.584 18.118 28.0484C17.6876 28.1639 17.2343 28.2256 16.7668 28.2256C16.4361 28.2256 16.1151 28.1934 15.802 28.1353C16.4546 30.1407 18.3491 31.601 20.5937 31.6418C18.8386 32.9961 16.6266 33.8035 14.2233 33.8035C13.8096 33.8035 13.4013 33.7792 13 33.7332C15.2702 35.1657 17.9663 36.0017 20.8627 36.0017C30.297 36.0017 35.4564 28.308 35.4564 21.6362C35.4564 21.4174 35.4511 21.1995 35.4414 20.9833C36.4433 20.2714 37.313 19.3824 38.0009 18.3701L37.9991 18.3675Z" fill="#2CAAE1"/>
</svg>
